<svg width="141" height="140" viewBox="0 0 141 140" fill="none" xmlns="http://www.w3.org/2000/svg">
<g clip-path="url(#clip0)">
<path d="M140.027 69.922C140.027 108.51 108.745 139.792 70.1564 139.792C31.5679 139.792 0.286133 108.51 0.286133 69.922C0.286133 31.3335 31.5679 0.0517578 70.1564 0.0517578C108.745 0.0517578 140.027 31.3335 140.027 69.922Z" fill="#376ED5"/>
<path d="M130.604 69.9221C130.604 103.307 103.541 130.37 70.1565 130.37C36.7717 130.37 9.7085 103.307 9.7085 69.9221C9.7085 36.5374 36.7717 9.47412 70.1565 9.47412C103.541 9.47412 130.604 36.5374 130.604 69.9221Z" fill="#6493EB"/>
<path d="M96.0948 75.3122C95.8342 75.2025 95.5496 75.1408 95.249 75.1408H91.5197V37.805C91.5197 35.974 90.0361 34.4905 88.2052 34.4905H46.2062C44.3753 34.4905 42.8906 35.974 42.8906 37.805V102.996C42.8906 104.826 44.3753 106.311 46.2062 106.311H53.7941V111.374C53.7941 112.574 54.7667 113.546 55.9668 113.546H95.249C96.4479 113.546 97.4206 112.574 97.4206 111.374V77.3135C97.4206 76.414 96.8742 75.6414 96.0948 75.3122Z" fill="#376ED5"/>
<path d="M88.2052 102.213H46.2062C44.3753 102.213 42.8906 100.729 42.8906 98.8984V35.9189C42.8906 34.0868 44.3753 32.6033 46.2062 32.6033H88.2052C90.0361 32.6033 91.5197 34.0868 91.5197 35.9189V98.8996C91.5197 100.729 90.0361 102.213 88.2052 102.213Z" fill="#BCBEC0"/>
<path d="M88.2052 100.004H46.2062C44.3753 100.004 42.8906 98.5201 42.8906 96.6891V33.7084C42.8906 31.8775 44.3753 30.3928 46.2062 30.3928H88.2052C90.0361 30.3928 91.5197 31.8775 91.5197 33.7084V96.6891C91.5197 98.5201 90.0361 100.004 88.2052 100.004Z" fill="white"/>
<path d="M57.5771 40.1568H50.1287C49.1698 40.1568 48.3926 39.3796 48.3926 38.4207C48.3926 37.4618 49.1698 36.6846 50.1287 36.6846H57.576C58.536 36.6846 59.312 37.4618 59.312 38.4207C59.3132 39.3796 58.536 40.1568 57.5771 40.1568Z" fill="#BCBEC0"/>
<path d="M78.7541 40.1568H63.8938C62.9349 40.1568 62.1577 39.3796 62.1577 38.4207C62.1577 37.4618 62.9349 36.6846 63.8938 36.6846H78.7541C79.713 36.6846 80.4902 37.4618 80.4902 38.4207C80.4902 39.3796 79.713 40.1568 78.7541 40.1568Z" fill="#BCBEC0"/>
<path d="M63.1603 46.8623H50.1287C49.1698 46.8623 48.3926 46.084 48.3926 45.1262C48.3926 44.1673 49.1698 43.3901 50.1287 43.3901H63.1603C64.1203 43.3901 64.8964 44.1673 64.8964 45.1262C64.8975 46.0851 64.1203 46.8623 63.1603 46.8623Z" fill="#BCBEC0"/>
<path d="M75.1174 46.8623H69.2805C68.3216 46.8623 67.5444 46.084 67.5444 45.1262C67.5444 44.1673 68.3228 43.3901 69.2805 43.3901H75.1174C76.0763 43.3901 76.8535 44.1673 76.8535 45.1262C76.8535 46.0851 76.0763 46.8623 75.1174 46.8623Z" fill="#BCBEC0"/>
<path d="M51.7755 58.0528H50.1297C49.1696 58.0528 48.3936 57.2756 48.3936 56.3167C48.3936 55.3578 49.1707 54.5806 50.1297 54.5806H51.7755C52.7355 54.5806 53.5116 55.3589 53.5116 56.3167C53.5116 57.2756 52.7355 58.0528 51.7755 58.0528Z" fill="#BCBEC0"/>
<path d="M71.2771 64.7581H69.6313C68.6712 64.7581 67.894 63.9809 67.894 63.022C67.894 62.0631 68.6724 61.2859 69.6313 61.2859H71.2771C72.236 61.2859 73.0132 62.0631 73.0132 63.022C73.0143 63.9809 72.236 64.7581 71.2771 64.7581Z" fill="#BCBEC0"/>
<path d="M68.7182 58.0528H57.385C56.4261 58.0528 55.6489 57.2756 55.6489 56.3167C55.6489 55.3578 56.4273 54.5806 57.385 54.5806H68.7182C69.6771 54.5806 70.4543 55.3589 70.4543 56.3167C70.4543 57.2756 69.6771 58.0528 68.7182 58.0528Z" fill="#BCBEC0"/>
<path d="M82.2595 58.0528H75.4099C74.451 58.0528 73.6738 57.2756 73.6738 56.3167C73.6738 55.3578 74.451 54.5806 75.4099 54.5806H82.2595C83.2184 54.5806 83.9956 55.3589 83.9956 56.3167C83.9956 57.2756 83.2184 58.0528 82.2595 58.0528Z" fill="#BCBEC0"/>
<path d="M63.1603 64.7581H50.1287C49.1698 64.7581 48.3926 63.9809 48.3926 63.022C48.3926 62.0631 49.1698 61.2859 50.1287 61.2859H63.1603C64.1203 61.2859 64.8964 62.0631 64.8964 63.022C64.8975 63.9809 64.1203 64.7581 63.1603 64.7581Z" fill="#BCBEC0"/>
<path d="M95.2494 109.45H55.9671C54.7671 109.45 53.7944 108.477 53.7944 107.277V74.8742C53.7944 73.6753 54.7671 72.7026 55.9671 72.7026H95.2494C96.4483 72.7026 97.4209 73.6753 97.4209 74.8742V107.277C97.4209 108.477 96.4483 109.45 95.2494 109.45Z" fill="#136DA0"/>
<path d="M95.2494 107.793H55.9671C54.7671 107.793 53.7944 106.82 53.7944 105.62V73.217C53.7944 72.018 54.7671 71.0454 55.9671 71.0454H95.2494C96.4483 71.0454 97.4209 72.018 97.4209 73.217V105.62C97.4209 106.82 96.4483 107.793 95.2494 107.793Z" fill="#1CAEE4"/>
<path d="M95.2494 71.0442H55.9671C54.7671 71.0442 53.7944 72.0168 53.7944 73.2169V77.4708H97.4209V73.2169C97.4209 72.0168 96.4483 71.0442 95.2494 71.0442Z" fill="#136DA0"/>
<path d="M58.5911 74.2582C58.5911 74.8079 58.1453 75.2537 57.5956 75.2537C57.0458 75.2537 56.6001 74.8079 56.6001 74.2582C56.6001 73.7084 57.0458 73.2627 57.5956 73.2627C58.1453 73.2627 58.5911 73.7084 58.5911 74.2582Z" fill="white"/>
<path d="M62.3923 74.2582C62.3923 74.8079 61.9466 75.2537 61.3969 75.2537C60.8471 75.2537 60.4014 74.8079 60.4014 74.2582C60.4014 73.7084 60.8471 73.2627 61.3969 73.2627C61.9466 73.2627 62.3923 73.7084 62.3923 74.2582Z" fill="white"/>
<path d="M66.1951 74.2582C66.1951 74.8079 65.7482 75.2537 65.1996 75.2537C64.6487 75.2537 64.2041 74.8068 64.2041 74.2582C64.2041 73.7073 64.6498 73.2627 65.1996 73.2627C65.7482 73.2627 66.1951 73.7084 66.1951 74.2582Z" fill="white"/>
<path d="M68.1153 101.67C67.7416 101.67 67.369 101.528 67.0844 101.244L60.8635 95.0226C60.5903 94.7495 60.436 94.378 60.436 93.9917C60.436 93.6054 60.5903 93.234 60.8635 92.9608L67.0844 86.7399C67.6536 86.1707 68.5771 86.1707 69.1474 86.7399C69.7166 87.309 69.7166 88.2337 69.1474 88.8028L63.9585 93.9917L69.1474 99.1806C69.7166 99.7498 69.7166 100.674 69.1474 101.244C68.8616 101.528 68.4891 101.67 68.1153 101.67Z" fill="#009ADD"/>
<path d="M83.142 101.67C82.7683 101.67 82.3957 101.528 82.11 101.244C81.5408 100.673 81.5408 99.7499 82.1111 99.1807L87.3 93.9918L82.11 88.8018C81.5408 88.2326 81.5408 87.3092 82.11 86.74C82.6803 86.1697 83.6038 86.1697 84.1741 86.74L90.3939 92.9598C90.667 93.2329 90.8213 93.6044 90.8213 93.9907C90.8213 94.377 90.667 94.7484 90.3939 95.0227L84.1741 101.243C83.8884 101.528 83.5158 101.67 83.142 101.67Z" fill="#009ADD"/>
<path d="M72.4671 101.671C72.2454 101.671 72.0202 101.62 71.8076 101.512C71.0899 101.148 70.8041 100.27 71.1687 99.551L77.4891 87.1103C77.8537 86.3925 78.7315 86.1057 79.4504 86.4703C80.1681 86.836 80.4538 87.7138 80.0904 88.4315L73.7689 100.872C73.5117 101.379 72.9986 101.671 72.4671 101.671Z" fill="#009ADD"/>
<path d="M68.1153 100.16C67.7416 100.16 67.369 100.018 67.0844 99.7339L60.8635 93.513C60.5903 93.2398 60.436 92.8684 60.436 92.4821C60.436 92.0958 60.5903 91.7243 60.8635 91.45L67.0844 85.2302C67.6536 84.6599 68.5771 84.6599 69.1474 85.2302C69.7166 85.7994 69.7166 86.7229 69.1474 87.2932L63.9585 92.4821L69.1474 97.6709C69.7166 98.2401 69.7166 99.1636 69.1474 99.7339C68.8616 100.018 68.4891 100.16 68.1153 100.16Z" fill="white"/>
<path d="M63.9573 92.482L69.1473 87.2931C69.7165 86.7228 69.7165 85.7994 69.1473 85.2302C68.6124 84.6964 67.7689 84.6621 67.1952 85.1296C67.234 85.1605 67.2706 85.1936 67.3061 85.2302C67.8764 85.7994 67.8764 86.7228 67.3061 87.2931L62.1172 92.482L67.3061 97.6709C67.8764 98.24 67.8764 99.1635 67.3061 99.7338C67.2706 99.7693 67.2329 99.8024 67.1952 99.8344C67.4626 100.052 67.7884 100.16 68.1152 100.16C68.489 100.16 68.8616 100.018 69.1473 99.7338C69.7165 99.1635 69.7165 98.24 69.1462 97.6709L63.9573 92.482Z" fill="#E6E7E8"/>
<path d="M83.142 100.16C82.7683 100.16 82.3957 100.018 82.11 99.7339C81.5408 99.1636 81.5408 98.2401 82.1111 97.6709L87.3 92.4821L82.11 87.2932C81.5408 86.7229 81.5408 85.7994 82.11 85.2302C82.6803 84.6599 83.6038 84.6599 84.1741 85.2302L90.3939 91.45C90.667 91.7243 90.8213 92.0958 90.8213 92.4821C90.8213 92.8684 90.667 93.2398 90.3939 93.513L84.1741 99.7339C83.8884 100.018 83.5158 100.16 83.142 100.16Z" fill="white"/>
<path d="M83.9516 99.7338C83.3824 99.1635 83.3824 98.24 83.9516 97.6709L89.1404 92.482L83.9516 87.2931C83.3824 86.7228 83.3824 85.7994 83.9516 85.2302C83.987 85.1936 84.0247 85.1605 84.0624 85.1296C83.4898 84.6621 82.6452 84.6964 82.1115 85.2302C81.5423 85.7994 81.5423 86.7228 82.1115 87.2931L87.3003 92.482L82.1115 97.6709C81.5423 98.24 81.5423 99.1635 82.1115 99.7338C82.396 100.018 82.7698 100.16 83.1435 100.16C83.4692 100.16 83.795 100.052 84.0624 99.8344C84.0247 99.8024 83.987 99.7693 83.9516 99.7338Z" fill="#E6E7E8"/>
<path d="M72.4671 100.16C72.2454 100.16 72.0202 100.11 71.8076 100.002C71.0899 99.6368 70.8041 98.759 71.1687 98.0412L77.4891 85.6005C77.8537 84.8828 78.7315 84.5959 79.4504 84.9605C80.1681 85.3262 80.4538 86.204 80.0904 86.9217L73.7689 99.3624C73.5117 99.8688 72.9986 100.16 72.4671 100.16Z" fill="white"/>
<path d="M79.4493 84.9606C79.3476 84.9091 79.2424 84.8703 79.135 84.844C79.2161 85.172 79.1841 85.5275 79.0196 85.8521L72.6981 98.2927C72.442 98.7991 71.9289 99.0905 71.3974 99.0905C71.282 99.0905 71.1665 99.0779 71.0522 99.0494C71.1494 99.4471 71.4134 99.8025 71.8077 100.003C72.0203 100.11 72.2455 100.161 72.4672 100.161C72.9998 100.161 73.5118 99.8688 73.769 99.3637L80.0893 86.9218C80.4539 86.2041 80.1682 85.3263 79.4493 84.9606Z" fill="#E6E7E8"/>
</g>
<defs>
<clipPath id="clip0">
<rect width="139.74" height="139.74" fill="white" transform="translate(0.286133 0.0517578)"/>
</clipPath>
</defs>
</svg>
