<svg width="173" height="75" viewBox="0 0 173 75" fill="none" xmlns="http://www.w3.org/2000/svg">
<path d="M77.721 7.78618L8.11572 5.32733L5.36994 67.6176L74.9752 70.0764L77.721 7.78618Z" fill="#3864B6"/>
<path d="M83.0798 14.0142L15.0698 0.53009L0.00215658 61.3927L68.0122 74.8769L83.0798 14.0142Z" fill="#6493EB"/>
<path d="M30.4376 43.2804C29.6692 43.2804 29.0678 43.2804 28.7003 43.2505L26.8293 48.8715C26.1277 49.021 25.1588 49.1107 23.9226 49.1107C22.5193 49.1107 21.4168 48.9612 20.5481 48.6922L20.3477 48.3932L29.9031 22.321C31.039 22.1715 32.342 22.0818 33.8455 22.0818C35.5495 22.0818 36.9193 22.1715 37.9216 22.3509L47.31 48.453C46.3076 48.9313 45.1383 49.2004 43.8687 49.2004C42.3652 49.2004 41.2961 48.9612 40.6947 48.5128C40.0933 48.0344 39.5587 47.1673 39.1244 45.8218L38.2891 43.2505C37.9216 43.2804 37.3536 43.2804 36.5852 43.2804H30.4376ZM30.304 38.3769L32.0413 38.347H35.2153C35.349 38.347 35.6163 38.347 35.9838 38.3769C36.3513 38.3769 36.6186 38.4068 36.7856 38.4068L36.0506 35.9849C35.349 33.8023 34.5471 31.1413 33.6785 27.9719H33.4112C33.1773 29.0782 32.4757 31.5598 31.3397 35.387L30.304 38.3769Z" fill="white"/>
<path d="M51.0186 48.8395V22.2889C51.9206 22.1394 53.09 22.0497 54.4933 22.0497C55.8965 22.0497 57.0993 22.1394 58.0014 22.2889V48.8395C57.0659 48.989 55.8965 49.0787 54.4933 49.0787C53.09 49.0488 51.9206 48.989 51.0186 48.8395Z" fill="white"/>
<path d="M93.2491 40.0491H90.6765V46.2681C89.9749 46.3877 89.1396 46.4475 88.1039 46.4475C87.0347 46.4475 86.1995 46.3877 85.5312 46.2681V26.5944L85.7651 26.3851C87.6361 26.3552 89.2064 26.3253 90.4426 26.2954C91.6788 26.2655 92.6477 26.2655 93.2825 26.2655C94.4853 26.2655 95.5544 26.415 96.5567 26.714C97.5256 27.013 98.3609 27.4315 99.0625 28.0295C99.7641 28.5976 100.299 29.3451 100.666 30.1823C101.034 31.0494 101.234 32.036 101.234 33.1423C101.234 34.2785 101.034 35.2652 100.633 36.1023C100.232 36.9694 99.6973 37.687 98.9957 38.2551C98.2941 38.8232 97.4588 39.2717 96.4899 39.5707C95.4876 39.8996 94.4185 40.0491 93.2491 40.0491ZM90.6765 29.7936V36.5508C91.2779 36.5209 91.779 36.5209 92.1131 36.5209C92.4806 36.5209 92.7145 36.5209 92.8147 36.5209C93.4161 36.5209 93.8839 36.4312 94.2848 36.2518C94.6857 36.0724 94.9864 35.8333 95.2203 35.5343C95.4542 35.2353 95.6212 34.8765 95.7549 34.4878C95.8551 34.0692 95.9219 33.6506 95.9219 33.2021C95.9219 32.7835 95.8551 32.3649 95.7549 31.9463C95.6546 31.5278 95.4876 31.169 95.2537 30.87C95.0198 30.571 94.7191 30.3019 94.3516 30.1225C93.9841 29.9431 93.5498 29.8534 93.0486 29.8534C92.5475 29.8534 92.1131 29.8534 91.7122 29.8534C91.3447 29.8235 90.9772 29.8235 90.6765 29.7936Z" fill="#6493EB"/>
<path d="M109.754 40.4094L109.72 42.5023V42.5322C110.723 42.5023 111.525 42.4724 112.126 42.4724H119.61C119.61 43.19 119.577 43.7282 119.51 44.1169C119.242 45.6119 118.14 46.3593 116.202 46.3593H107.582C106.647 46.3593 105.912 46.1202 105.377 45.6418C104.842 45.1634 104.575 44.5056 104.575 43.6684V26.6557L104.809 26.4464H118.775C118.908 27.0145 118.975 27.6125 118.975 28.2703C118.975 28.9281 118.808 29.6157 118.507 30.3333H109.687L109.72 32.4263V34.4594C110.288 34.4295 111.023 34.4295 111.926 34.4295H116.87C117.071 34.9677 117.171 35.5956 117.171 36.2833C117.171 36.971 117.071 37.6288 116.87 38.1968H109.754V40.4094Z" fill="#6493EB"/>
<path d="M137.518 44.9824C136.816 45.4907 135.914 45.8495 134.778 46.0887C133.642 46.3279 132.406 46.4475 131.036 46.4475C130.368 46.4475 129.399 46.4475 128.13 46.4176C126.86 46.3877 125.29 46.3578 123.385 46.3279L123.151 46.1186V26.5944L123.385 26.3851C124.655 26.3552 125.924 26.3253 127.294 26.2954C128.631 26.2655 130.067 26.2655 131.571 26.2655C133.408 26.2655 134.945 26.5346 136.181 27.0429C137.418 27.5511 138.387 28.2687 139.122 29.1956C139.857 30.0926 140.391 31.169 140.692 32.3948C140.993 33.6207 141.16 34.9363 141.16 36.3415C141.16 38.285 140.926 39.9594 140.425 41.3646C139.923 42.7998 138.955 43.9958 137.518 44.9824ZM131.571 42.7998C134.411 42.7998 135.847 40.647 135.847 36.3714C135.847 32.0659 134.411 29.9132 131.571 29.9132C130.869 29.9132 130.268 29.9132 129.733 29.9132C129.199 29.9132 128.731 29.9132 128.363 29.8833V42.8596C128.764 42.8297 129.199 42.8297 129.733 42.8297C130.268 42.7998 130.869 42.7998 131.571 42.7998Z" fill="#6493EB"/>
<path d="M144.902 46.2681V26.4449C145.571 26.3253 146.439 26.2655 147.508 26.2655C148.578 26.2655 149.446 26.3253 150.148 26.4449V46.2681C149.446 46.3877 148.578 46.4475 147.508 46.4475C146.439 46.4176 145.571 46.3578 144.902 46.2681Z" fill="#6493EB"/>
<path d="M160.471 42.1121C159.903 42.1121 159.469 42.1121 159.168 42.0822L157.765 46.298C157.23 46.4176 156.528 46.4774 155.593 46.4774C154.557 46.4774 153.722 46.3578 153.054 46.1485L152.887 45.9093L160.003 26.4449C160.838 26.3253 161.841 26.2655 162.943 26.2655C164.213 26.2655 165.249 26.3253 165.984 26.4748L173 45.9691C172.231 46.3279 171.396 46.5073 170.427 46.5073C169.291 46.5073 168.523 46.3279 168.055 45.999C167.587 45.6402 167.22 44.9824 166.886 43.9958L166.284 42.0822C166.017 42.1121 165.583 42.1121 165.015 42.1121H160.471ZM160.404 38.4644L161.707 38.4345H164.079C164.179 38.4345 164.38 38.4345 164.647 38.4345C164.914 38.4345 165.115 38.4345 165.249 38.4345L164.714 36.6405C164.179 35.026 163.611 33.0227 162.943 30.6607H162.743C162.576 31.4979 162.041 33.3516 161.173 36.192L160.404 38.4644Z" fill="#6493EB"/>
</svg>
