<svg width="594" height="638" viewBox="0 0 594 638" fill="none" xmlns="http://www.w3.org/2000/svg">
<path d="M167.634 271.684C166.306 290.596 160.594 306.067 152.842 318.373C133.294 349.406 88.8105 348.81 59.5205 370.885C40.3467 385.336 26.7109 407.237 17.3848 430.096C-0.475255 473.872 7.84697 523.771 31.5702 564.668C59.7856 613.309 81.623 619.233 111.23 634.037C150.718 653.781 308.668 594.549 354.079 570.857C365.685 564.802 381.897 561.809 399.77 560.798L400.933 560.732C471.149 556.762 565.229 551.443 559.662 481.604C558.659 469.019 554.948 455.305 547.569 440.547C530.716 406.843 529.281 378.896 534.525 357.473C543.135 322.297 577.161 298.132 588.697 263.804C596.06 241.893 595.183 224.782 589.573 211.633C570.959 168.009 508.81 184.23 462.025 192.02C395.413 203.112 310.701 200.848 259.309 148.339C224.125 112.39 199.251 111.411 182.353 125.27C142.761 157.742 171.22 220.605 167.634 271.684Z" fill="url(#paint0_linear)"/>
<ellipse rx="2.72917" ry="1.02612" transform="matrix(0.967265 -0.253767 0.339255 0.940695 219.295 1.98534)" fill="white"/>
<ellipse rx="2.72919" ry="1.02636" transform="matrix(0.967244 -0.253848 0.339153 0.940731 130.917 4.67727)" fill="white"/>
<ellipse rx="2.72915" ry="1.02602" transform="matrix(0.967268 -0.253758 0.339266 0.94069 273.742 53.1423)" fill="white"/>
<ellipse rx="2.72922" ry="1.02636" transform="matrix(0.967245 -0.253846 0.339156 0.94073 297.415 121.128)" fill="white"/>
<ellipse rx="2.72918" ry="1.02629" transform="matrix(0.967249 -0.25383 0.339175 0.940723 167.215 191.806)" fill="white"/>
<ellipse rx="2.72917" ry="1.02599" transform="matrix(0.967275 -0.25373 0.339302 0.940678 90.6733 188.44)" fill="white"/>
<ellipse rx="2.72915" ry="1.02616" transform="matrix(0.967258 -0.253795 0.339219 0.940707 123.026 219.404)" fill="white"/>
<ellipse rx="2.72919" ry="1.02609" transform="matrix(0.967264 -0.253773 0.339247 0.940697 147.488 339.219)" fill="white"/>
<ellipse rx="2.72912" ry="1.02578" transform="matrix(0.967258 -0.253793 0.339222 0.940706 100.931 284.023)" fill="white"/>
<ellipse rx="2.72916" ry="1.02622" transform="matrix(0.967253 -0.253813 0.339197 0.940715 39.3824 304.217)" fill="white"/>
<ellipse rx="2.72917" ry="1.02625" transform="matrix(0.967256 -0.253805 0.339207 0.940712 403.152 109.012)" fill="white"/>
<ellipse rx="2.72919" ry="1.02612" transform="matrix(0.967266 -0.253765 0.339258 0.940693 127.76 153.438)" fill="white"/>
<ellipse rx="2.72918" ry="1.02629" transform="matrix(0.967249 -0.25383 0.339175 0.940723 55.9532 179.69)" fill="white"/>
<ellipse rx="2.72915" ry="1.02602" transform="matrix(0.967268 -0.253758 0.339266 0.94069 491.531 85.4521)" fill="white"/>
<ellipse rx="2.72912" ry="1.02578" transform="matrix(0.967258 -0.253793 0.339222 0.940706 200.356 284.023)" fill="white"/>
<ellipse rx="2.72915" ry="1.02602" transform="matrix(0.967268 -0.253758 0.339266 0.94069 490.741 170.939)" fill="white"/>
<ellipse rx="2.72916" ry="1.0262" transform="matrix(0.967251 -0.253821 0.339186 0.940719 523.883 259.792)" fill="white"/>
<ellipse rx="2.72922" ry="1.02623" transform="matrix(0.967255 -0.253808 0.339203 0.940713 262.425 292.259)" fill="white"/>
<ellipse rx="2.72919" ry="1.02622" transform="matrix(0.967254 -0.253811 0.3392 0.940714 325.223 276.133)" fill="white"/>
<ellipse rx="2.72922" ry="1.02636" transform="matrix(0.967245 -0.253846 0.339156 0.94073 415.778 6.6968)" fill="white"/>
<path d="M221.795 269.212V264.888C221.795 262.776 223.438 261.027 225.547 260.896L312.564 255.471C314.866 255.328 316.813 257.157 316.813 259.464V263.788C316.813 265.901 315.17 267.649 313.061 267.78L226.044 273.205C223.742 273.348 221.795 271.52 221.795 269.212Z" fill="white"/>
<path d="M339.765 289.018L322.242 290.252M316.813 259.464V263.788C316.813 265.901 315.17 267.649 313.061 267.78L226.044 273.205C223.742 273.348 221.795 271.52 221.795 269.212V264.888C221.795 262.776 223.438 261.027 225.547 260.896L312.564 255.471C314.866 255.328 316.813 257.157 316.813 259.464Z" stroke="white"/>
<path d="M480.44 262.611L202.052 284.504V475.287L480.44 495.095V262.611Z" fill="#F9FDFF"/>
<path d="M194.648 486.577V473.275C194.648 470.388 197.085 468.101 199.965 468.285L484.889 486.405C487.521 486.573 489.571 488.757 489.571 491.395V512.327C489.571 515.266 487.048 517.572 484.121 517.307L199.198 491.557C196.621 491.324 194.648 489.164 194.648 486.577Z" fill="#382B73"/>
<path d="M484.943 262.215L200.019 283.435C197.119 283.651 194.648 281.357 194.648 278.449V261.287C194.648 258.687 196.64 256.521 199.231 256.304L484.154 232.461C487.07 232.217 489.571 234.518 489.571 237.444V257.229C489.571 259.846 487.553 262.021 484.943 262.215Z" fill="#382B73"/>
<path d="M308.175 307.035C281.356 308.186 227.225 310.292 225.251 309.503V373.67H308.175V307.035Z" fill="#6493EB"/>
<path d="M389 356.366H431.215C429.672 336.352 411.611 320.364 389 319V356.366Z" fill="white"/>
<path d="M416.679 385.5C423.488 378.963 427.891 370.431 428.617 361H389L416.679 385.5Z" fill="#6493EB"/>
<path d="M382.335 361.989V319.072C358.687 320.499 340 337.919 340 359.214C340 381.441 360.358 399.46 385.47 399.46C396.43 399.46 406.475 396.02 414.322 390.302L382.335 361.989Z" fill="#4F67EB"/>
<path d="M440.458 386.257C431.771 385.664 430.751 371.038 431.327 363.798C455.217 353.334 453.621 375.562 449.837 387.984L451.564 391.686C449.393 396.03 442.433 394.483 439.224 393.167L440.458 386.257Z" fill="#FFE7A8"/>
<rect x="226.238" y="387.984" width="55.2827" height="10.8591" rx="3" fill="#6493EB"/>
<rect x="226.238" y="403.779" width="82.9241" height="10.8591" rx="3" fill="#6493EB"/>
<rect x="226.731" y="419.574" width="82.9241" height="10.8591" rx="3" fill="#6493EB"/>
<g filter="url(#filter0_d)">
<path d="M423.182 395.388C424.564 393.809 437.497 403.615 441.939 403.286C450.824 407.63 459.379 404.109 459.955 402.299V392.427C470.617 390.058 472.789 398.021 472.542 402.299V478.312C459.955 489.172 420.961 481.768 420.961 483.002C415.828 478.658 419.48 441.211 420.961 421.055C408.917 421.055 396.035 406.33 387.643 400.571C385.472 388.725 391.345 358.698 395.294 345.782L395.294 348.497C393.567 350.965 394.307 392.427 395.294 392.427C396.084 392.427 414.215 394.401 423.182 395.388Z" fill="#E6E7E8"/>
</g>
<g filter="url(#filter1_d)">
<path d="M429.499 395.635C430.881 394.056 440.111 393.003 444.553 392.674C453.438 397.017 456.811 394.484 457.387 392.674H466.272C476.933 390.304 479.105 398.268 478.858 402.546V478.559C466.272 489.418 427.277 482.014 427.277 483.248C415.778 463.751 435.522 450.918 427.277 418.341C415.234 418.341 393.466 405.836 385.075 400.078C382.903 388.231 390.258 359.438 394.207 346.522L401.61 348.744C399.883 351.212 400.623 392.674 401.61 392.674C402.4 392.674 420.532 394.648 429.499 395.635Z" fill="white"/>
</g>
<path d="M427.378 354.666C425.996 369.474 434.041 369.227 438.237 367.253V374.163C448.109 369.03 443.337 374.821 439.718 378.359C438.138 388.626 446.957 387.902 451.564 386.256C472.295 361.33 442.679 351.951 438.237 354.666C434.683 356.838 429.517 355.571 427.378 354.666Z" fill="#281C8B"/>
<path d="M398.186 336.27C391.275 335.085 392.18 343.509 393.497 347.869L402.381 348.856C407.317 342.933 404.603 344.167 401.641 344.167C404.603 339.478 406.824 337.75 398.186 336.27Z" fill="#FFE7A8"/>
<path d="M430.586 615.678V610.495H440.952C443.716 610.495 444.243 614.937 444.16 617.159C441.988 620.91 434.206 617.734 430.586 615.678Z" fill="#FFE7A8"/>
<path d="M477.231 610.495V604.572C479.123 604.572 483.253 603.93 484.635 601.363C486.017 598.797 489.653 604.572 491.299 607.78C489.324 613.309 481.098 611.894 477.231 610.495Z" fill="#FFE7A8"/>
<path d="M431.08 614.545C439.965 617.901 444.819 615.943 446.135 614.545C450.281 615.729 448.85 621.949 447.616 624.91L414.792 623.676C416.272 617.013 428.612 614.545 431.08 614.545Z" fill="#382B73"/>
<path d="M477.203 609.414C486.552 611.087 490.965 608.274 492.003 606.658C496.296 607.064 496.027 613.44 495.356 616.578L462.861 621.372C463.097 614.55 474.777 609.865 477.203 609.414Z" fill="#382B73"/>
<path d="M420.961 577.031C410.835 546.276 415.195 504.328 419.112 484.476C419.436 482.837 421.056 481.835 422.698 482.144C439.581 485.33 458.212 482.934 468.026 480.772C469.692 480.405 471.095 481.439 470.981 483.14C470.277 493.611 466.585 526.328 466.372 527.178C466.181 527.942 480.208 574.62 487.605 599.717C488.026 601.147 487.332 602.663 485.932 603.175C481.504 604.793 475.003 606.481 473.529 606.153C471.772 605.763 463.109 583.449 458.86 571.977C458.766 571.723 458.647 571.502 458.494 571.278C453.672 564.224 447.586 543.972 443.605 528.857C442.829 525.91 438.598 525.783 437.684 528.691L436.068 533.833C435.736 534.891 435.522 535.941 435.522 537.05C435.522 539.665 440.178 584.334 442.432 609.305C442.574 610.872 441.476 612.271 439.909 612.411C434.468 612.898 426.884 612.752 426.884 611.089C426.884 609.115 422.936 587.561 420.961 577.031Z" fill="#0061D6"/>
<path d="M426.453 577.278C416.326 546.523 420.687 504.575 424.604 484.723C424.927 483.084 426.546 482.082 428.191 482.378C445.311 485.455 465.771 481.949 475.928 479.562C477.589 479.171 478.949 480.205 478.762 481.901C477.582 492.583 472.077 526.572 471.864 527.425C471.673 528.189 485.005 573.939 492.357 598.976C492.777 600.406 492.079 601.916 490.666 602.394C485.665 604.085 477.242 605.991 475.75 605.66C473.993 605.269 468.53 583.682 464.351 572.226C464.258 571.971 464.139 571.749 463.986 571.525C459.163 564.471 453.078 544.218 449.096 529.104C448.32 526.157 444.089 526.03 443.176 528.938L441.559 534.08C441.227 535.138 441.014 536.188 441.014 537.297C441.014 539.912 445.211 583.66 447.432 608.564C447.571 610.131 446.477 611.532 444.921 611.76C438.923 612.638 429.352 613.756 429.352 612.077C429.352 610.102 428.427 587.808 426.453 577.278Z" fill="#6493EB"/>
<path d="M159.602 581.474L163.057 574.07L171.202 576.538C171.202 584.238 163.304 583.284 159.602 581.474Z" fill="#FFE7A8"/>
<path d="M172.87 578.867C170.649 581.335 161.27 580.595 160.036 580.101C158.852 579.874 159.049 584.778 159.296 587.258H187.184C183.153 583.639 174.647 576.893 172.87 578.867Z" fill="#1643B1"/>
<path d="M172.436 581.227L173.423 572.096L182.061 572.342C182.061 587.891 180.086 583.448 172.436 581.227Z" fill="#FFE7A8"/>
<path d="M183.235 579.361C181.014 581.829 171.636 581.088 170.402 580.595C169.217 580.367 169.415 585.271 169.661 587.752H197.55C193.518 584.132 185.012 577.386 183.235 579.361Z" fill="#3762CC"/>
<path d="M132.368 472.086C127.475 476.048 124.598 477.409 122.016 477.652C117.749 478.054 113.951 480.454 113.806 484.737C113.658 489.069 113.556 491.565 114.236 492.771C115.776 495.503 120.499 494.896 123.275 496.355C124.743 497.127 126.514 497.885 128.501 498.618C147.74 505.715 163.591 522.834 162.094 543.286L159.967 572.356C159.76 575.185 161.295 578.003 164.119 578.27C165.766 578.425 167.375 578.307 168.783 578.065C171.134 577.663 172.699 575.6 173.084 573.246C179.868 531.811 181.063 511.88 179.927 505.49C179.775 504.636 179.647 503.775 179.623 502.909C179.114 484.629 153.26 474.082 138.223 470.602C136.156 470.124 134.017 470.751 132.368 472.086Z" fill="#3762CC"/>
<path d="M132.368 472.086C127.475 476.048 124.598 477.409 122.016 477.652C117.749 478.054 113.951 480.454 113.806 484.737C113.658 489.069 113.556 491.565 114.236 492.771C115.776 495.503 120.499 494.896 123.275 496.355C124.743 497.127 126.514 497.885 128.501 498.618C147.74 505.715 163.591 522.834 162.094 543.286L159.967 572.356C159.76 575.185 161.295 578.003 164.119 578.27C165.766 578.425 167.375 578.307 168.783 578.065C171.134 577.663 172.699 575.6 173.084 573.246C179.868 531.811 181.063 511.88 179.927 505.49C179.775 504.636 179.647 503.775 179.623 502.909C179.114 484.629 153.26 474.082 138.223 470.602C136.156 470.124 134.017 470.751 132.368 472.086Z" fill="#3762CC"/>
<path d="M147.212 384.154C147.88 391.761 141.743 398.54 138.591 400.978V406.098C134.364 408.634 128.858 406.342 126.633 404.879L127.189 400.246C123.852 395.565 126.355 384.967 128.023 380.253C134.142 378.384 146.545 376.547 147.212 384.154Z" fill="#FBE3DB"/>
<path d="M150.717 373.176C151.902 385.023 143.313 384.365 138.871 382.555C139.661 383.542 138.542 387.079 137.884 388.725C130.579 384.776 134.84 390.37 137.884 393.661C139.068 400.768 132.125 400.407 128.505 399.337C114.438 385.763 128.505 364.292 134.922 368.734C140.056 372.288 147.591 373.176 150.717 373.176Z" fill="#382B73"/>
<path d="M116.706 435.369C120.063 401.41 117.94 407.07 122.382 409.456C122.382 417.106 145.828 410.47 145.088 403.807C149.777 402.82 162.117 407.015 162.364 406.028C162.561 405.238 176.796 393.661 185.763 386.997C187.54 387.984 185.187 391.193 185.763 392.427C183.196 397.363 174.539 404.026 166.312 409.456L139.165 413.158C140.798 415.063 142.993 423.016 144.685 430.2C145.155 429.272 145.773 428.506 146.569 427.966C147.831 430.969 150.259 435.548 153.319 439.165C162.376 439.677 178.114 440.65 185.763 441.293L196.175 446.475L162.611 444.748C159.264 444.841 156.041 442.384 153.319 439.165C149.614 438.956 147.027 438.825 146.569 438.825C146.108 436.523 145.448 433.44 144.685 430.2C142.234 435.03 143.777 444.25 145.088 448.943C149.777 458.075 150.271 466.466 146.569 472.636C143.607 477.572 129.211 476.996 122.382 476.091C113.103 478.263 114.732 449.848 116.706 435.369Z" fill="#C4C4C4"/>
<path d="M109.502 436.357C112.245 408.602 119.242 401.047 124.132 400.515C125.962 400.316 126.828 402.338 127.746 403.934C129.548 407.068 134.292 407.575 136.891 405.751C138.998 404.272 140.579 401.538 143.149 401.681C149.81 402.05 159.903 403.863 160.096 403.094C160.276 402.375 176.024 393.346 185.608 386.706C187.223 385.587 189.357 385.461 190.673 386.919C190.895 387.166 191.108 387.417 191.309 387.665C192.283 388.876 192.254 390.53 191.2 391.672C188.019 395.118 181.087 400.075 174.553 404.483C167.741 409.079 159.664 411.43 151.446 411.43C150.093 411.43 149.067 413.221 149.553 414.483C151.294 419.005 153.251 427.036 154.567 433.085C155.074 435.414 157.116 437.131 159.498 437.203C166.811 437.424 182.065 437.967 191.349 438.581C193.217 438.705 194.648 440.264 194.648 442.135C194.648 444.123 193.036 445.735 191.048 445.735H155.407C150.205 445.88 145.303 439.865 142.113 434.404C140.52 431.676 137.099 431.079 136.518 434.184C135.619 438.997 136.713 445.525 137.751 449.443C137.838 449.769 137.963 450.083 138.114 450.384C142.588 459.34 143.005 467.556 139.365 473.623C136.528 478.351 123.201 478.022 116.081 477.191C115.481 477.121 114.874 477.185 114.27 477.196C106.01 477.335 107.595 450.344 109.502 436.357Z" fill="white"/>
<path fill-rule="evenodd" clip-rule="evenodd" d="M157.761 581.104C168.036 571.161 174.41 557.308 174.41 541.986C174.41 511.727 149.549 487.197 118.881 487.197C118.137 487.197 117.396 487.212 116.659 487.24V509.912C116.905 509.906 117.152 509.903 117.4 509.903C133.892 509.903 147.262 523.494 147.262 540.259C147.262 548.633 143.926 556.215 138.532 561.708L157.761 581.104Z" fill="#3250CC"/>
<path fill-rule="evenodd" clip-rule="evenodd" d="M79.146 578.734C89.2798 589.425 103.705 596.108 119.712 596.108C134.724 596.108 148.345 590.23 158.339 580.68L139.11 561.295C133.725 566.648 126.357 569.947 118.231 569.947C109.588 569.947 101.803 566.215 96.3501 560.25L79.146 578.734Z" fill="#3250CC"/>
<path fill-rule="evenodd" clip-rule="evenodd" d="M117.153 487.197C87.9775 488.837 64.8315 512.699 64.8315 541.896C64.8315 556.083 70.2964 569.01 79.2623 578.741L96.8487 560.661C91.9852 555.261 89.0177 548.067 89.0177 540.169C89.0177 523.993 101.464 510.772 117.153 509.862V487.197Z" fill="#3250CC"/>
<path fill-rule="evenodd" clip-rule="evenodd" d="M148.383 585.053C158.657 575.11 165.032 561.257 165.032 545.935C165.032 515.676 140.17 491.146 109.502 491.146C108.758 491.146 108.018 491.16 107.281 491.189V513.86C107.527 513.854 107.774 513.851 108.021 513.851C124.514 513.851 137.884 527.442 137.884 544.207C137.884 552.582 134.548 560.164 129.153 565.656L148.383 585.053Z" fill="#291D89"/>
<path fill-rule="evenodd" clip-rule="evenodd" d="M69.4299 582.363C79.5638 593.055 93.9888 599.737 109.996 599.737C125.008 599.737 138.629 593.86 148.623 584.309L129.394 564.925C124.009 570.277 116.641 573.577 108.515 573.577C99.8723 573.577 92.0872 569.845 86.6342 563.879L69.4299 582.363Z" fill="white"/>
<path fill-rule="evenodd" clip-rule="evenodd" d="M107.775 491.146C78.5994 492.786 55.4534 516.648 55.4534 545.845C55.4534 560.032 60.9182 572.959 69.8842 582.69L87.4706 564.61C82.6071 559.21 79.6395 552.016 79.6395 544.118C79.6395 527.942 92.0858 514.721 107.775 513.811V491.146Z" fill="#4F67EB"/>
<path d="M192.92 389.917L188.231 384.981C189.218 378.86 193.249 377.494 195.141 377.577C202.446 371.654 199.172 376.096 196.622 379.057L197.609 386.708L192.92 389.917Z" fill="#FFE7A8" stroke="#FFE7A8"/>
<path d="M175.624 408L166.012 430.431C165.508 431.605 166.22 432.944 167.476 433.183L204.35 440.209C205.275 440.385 206.197 439.893 206.565 439.027L215.439 418.158C215.923 417.018 215.266 415.716 214.06 415.429L177.925 406.842C176.978 406.617 176.007 407.106 175.624 408Z" fill="#3762CC"/>
<path d="M178.674 411.468L171.426 428.567C170.929 429.739 171.639 431.071 172.889 431.311L201.118 436.749C202.047 436.927 202.974 436.432 203.34 435.56L210.023 419.67C210.502 418.533 209.846 417.238 208.647 416.95L180.983 410.304C180.032 410.075 179.056 410.567 178.674 411.468Z" fill="white"/>
<path d="M143.135 468.035C134.811 473.87 124.304 475.646 116.388 475.805C112.103 475.891 107.977 479.442 109.937 483.253C113.03 489.267 119.847 490.457 125.44 489.971C128.164 489.734 129.364 489.232 131.63 490.762C152.037 504.545 175.822 519.83 173.356 544.332L170.945 568.28C170.654 571.171 172.199 574.086 175.094 574.333C176.692 574.47 178.251 574.351 179.619 574.117C181.97 573.714 183.536 571.651 183.915 569.297C186.646 552.34 188.157 538.884 188.893 528.457C190.244 509.308 189.416 486.557 173.176 476.319C165.445 471.446 156.183 468.289 149.06 466.65C146.993 466.175 144.873 466.818 143.135 468.035Z" fill="#382B73"/>
<path d="M193.167 445.294V439.125C197.51 433.596 197.444 436.327 196.868 438.384L199.09 439.125C202.545 432.096 203.038 442.58 201.064 445.294C199.485 447.466 195.141 446.199 193.167 445.294Z" fill="#FFE7A8"/>
<defs>
<filter id="filter0_d" x="370.176" y="332.782" width="119.385" height="172.549" filterUnits="userSpaceOnUse" color-interpolation-filters="sRGB">
<feFlood flood-opacity="0" result="BackgroundImageFix"/>
<feColorMatrix in="SourceAlpha" type="matrix" values="0 0 0 0 0 0 0 0 0 0 0 0 0 0 0 0 0 0 127 0"/>
<feOffset dy="4"/>
<feGaussianBlur stdDeviation="8.5"/>
<feColorMatrix type="matrix" values="0 0 0 0 0 0 0 0 0 0 0 0 0 0 0 0 0 0 0.02 0"/>
<feBlend mode="normal" in2="BackgroundImageFix" result="effect1_dropShadow"/>
<feBlend mode="normal" in="SourceGraphic" in2="effect1_dropShadow" result="shape"/>
</filter>
<filter id="filter1_d" x="367.682" y="333.522" width="128.195" height="172.055" filterUnits="userSpaceOnUse" color-interpolation-filters="sRGB">
<feFlood flood-opacity="0" result="BackgroundImageFix"/>
<feColorMatrix in="SourceAlpha" type="matrix" values="0 0 0 0 0 0 0 0 0 0 0 0 0 0 0 0 0 0 127 0"/>
<feOffset dy="4"/>
<feGaussianBlur stdDeviation="8.5"/>
<feColorMatrix type="matrix" values="0 0 0 0 0 0 0 0 0 0 0 0 0 0 0 0 0 0 0.02 0"/>
<feBlend mode="normal" in2="BackgroundImageFix" result="effect1_dropShadow"/>
<feBlend mode="normal" in="SourceGraphic" in2="effect1_dropShadow" result="shape"/>
</filter>
<linearGradient id="paint0_linear" x1="297.332" y1="117" x2="297.332" y2="638" gradientUnits="userSpaceOnUse">
<stop stop-color="#838FF3"/>
<stop offset="1" stop-color="#5D9CF0"/>
</linearGradient>
</defs>
</svg>
