<svg width="567" height="495" viewBox="0 0 567 495" fill="none" xmlns="http://www.w3.org/2000/svg">
<path d="M159.976 178.724C115.725 197.967 9.23491 248.027 1.72249 272.162C-3.08392 299.954 17.2338 401.953 28.8788 419.593C68.6657 481.064 193.946 561.673 376.772 392.331C605.304 180.654 445.186 58.7793 352.026 9.06728C258.866 -40.6448 215.289 154.669 159.976 178.724Z" fill="url(#paint0_linear)" stroke="#DAF2F8"/>
<path d="M171.996 406.423V407.794H167.569V406.423C167.569 403.17 164.602 400.544 160.927 400.544H158.713V396.625H160.927C164.558 396.625 167.79 398.193 169.782 400.584C171.2 402.19 171.996 404.228 171.996 406.423Z" fill="#725D57"/>
<path d="M171.996 406.423V407.794H169.783V400.584C171.2 402.19 171.996 404.228 171.996 406.423Z" fill="#53433F"/>
<path d="M176.424 404.463C174.343 404.463 172.395 404.855 170.535 405.678C170.313 405.795 170.048 405.835 169.782 405.835C169.517 405.835 169.251 405.795 169.03 405.678C167.17 404.855 165.222 404.463 163.141 404.463C155.835 404.463 149.858 409.754 149.858 416.22C149.858 425.077 156.765 436.076 165.355 436.076C166.86 436.076 168.321 435.763 169.782 435.097C171.244 435.763 172.705 436.076 174.21 436.076C182.8 436.076 189.707 425.077 189.707 416.22C189.707 409.754 183.729 404.463 176.424 404.463Z" fill="#FF637B"/>
<path d="M189.707 416.22C189.707 425.077 182.8 436.076 174.21 436.076C172.705 436.076 171.244 435.763 169.783 435.097V405.835C170.048 405.835 170.314 405.795 170.535 405.678C172.395 404.855 174.344 404.463 176.424 404.463C183.73 404.463 189.707 409.754 189.707 416.22Z" fill="#E63950"/>
<path d="M207.565 439.996L200.923 441.955H149.711C147.275 441.955 143.069 438.232 143.069 436.076C143.069 433.921 147.275 430.198 149.711 430.198H200.923L207.565 432.157C205.13 432.157 203.137 433.921 203.137 436.076C203.137 438.232 205.13 439.996 207.565 439.996Z" fill="#FFF5F5"/>
<path d="M207.565 439.996L200.924 441.955H169.783V430.198H200.924L207.565 432.157C205.13 432.157 203.137 433.921 203.137 436.076C203.137 438.232 205.13 439.996 207.565 439.996Z" fill="#EFE2DD"/>
<path d="M145.283 436.077C145.283 438.232 147.276 439.996 149.711 439.996H207.565V443.915H149.711C144.84 443.915 140.855 440.388 140.855 436.077C140.855 431.766 144.84 428.239 149.711 428.239H207.565V432.158H149.711C147.276 432.158 145.283 433.921 145.283 436.077Z" fill="#2C83EC"/>
<path d="M169.783 428.239H207.565V432.157H169.783V428.239Z" fill="#0061D6"/>
<path d="M169.783 439.996H207.565V443.914H169.783V439.996Z" fill="#0061D6"/>
<path d="M200.924 453.712C200.924 456.965 195.744 461.55 192.068 461.55H137.269L132 459.591C134.878 459.591 137.313 457.944 138.243 455.671L140.855 453.712L138.243 451.752C137.313 449.479 134.878 447.833 132 447.833L136.029 445.874H192.068C195.744 445.874 200.924 450.459 200.924 453.712Z" fill="#FFF5F5"/>
<path d="M200.924 453.712C200.924 456.965 195.744 461.55 192.068 461.55H169.783V445.874H192.068C195.744 445.874 200.924 450.459 200.924 453.712Z" fill="#EFE2DD"/>
<path d="M192.068 443.914H132V447.833H192.068C195.744 447.833 198.71 450.459 198.71 453.712C198.71 456.964 195.744 459.59 192.068 459.59H132V463.509H192.068C198.178 463.509 203.137 459.12 203.137 453.712C203.137 448.304 198.178 443.914 192.068 443.914Z" fill="#5DA4FA"/>
<path d="M194.282 451.752V455.672H138.243C138.465 455.044 138.642 454.417 138.642 453.712C138.642 453.007 138.465 452.38 138.243 451.752H194.282Z" fill="#EFE2DD"/>
<path d="M203.138 453.712C203.138 459.12 198.178 463.509 192.068 463.509H169.783V459.59H192.068C195.744 459.59 198.71 456.964 198.71 453.712C198.71 450.459 195.744 447.833 192.068 447.833H169.783V443.914H192.068C198.178 443.914 203.138 448.304 203.138 453.712Z" fill="#4792EC"/>
<path d="M169.783 451.752H194.282V455.672H169.783V451.752Z" fill="#E1D3CE"/>
<path d="M224.883 396.962C213.666 408.965 207.071 425.962 247.215 408.842C244.46 404.513 239.641 397.552 224.883 396.962Z" fill="white"/>
<path d="M227.733 398.216C216.516 410.219 209.432 427.143 249.576 410.023C246.821 405.693 238.596 397.271 227.733 398.216Z" fill="#D3028D" stroke="#D3028D"/>
<path d="M224.883 407.588C225.473 409.556 227.835 413.255 232.557 412.311" stroke="#FF82D4"/>
<path d="M228.425 404.046C229.015 406.014 231.377 409.713 236.099 408.769" stroke="#FF82D4"/>
<path d="M354.086 334.925C367.09 340.746 397.575 350.891 415.482 344.904C415.056 341.577 402.18 334.925 354.086 334.925Z" fill="#0055BC"/>
<path d="M358.808 357.622C358.808 355.733 361.957 341.486 363.531 334.599C364.2 331.647 401.313 336.96 401.904 341.093C402.376 344.399 393.836 374.743 389.506 389.501L341.098 374.743L321.026 365.297V351.719C326.929 348.767 358.808 359.984 358.808 357.622Z" fill="#FBE3DB"/>
<path d="M286.672 244.69C278.946 259.962 285.635 277.887 291.185 284.511L405.123 288.643C412.01 273.294 421.386 252.275 401.581 242.596C384.368 234.183 380.989 233.171 382.635 228.576C382.669 228.479 382.725 228.381 382.789 228.3C399.947 206.308 370.416 192.373 352.894 186.034C352.687 185.96 352.51 185.811 352.391 185.628C315.847 129.396 277.612 171.796 280.559 196.548C260.272 207.992 274.36 227.686 285.266 237.053C287.429 238.911 287.959 242.145 286.672 244.69Z" fill="#002877"/>
<path d="M338.146 200.958C330.117 205.208 301.347 207.058 287.966 207.451C291.744 236.733 315.909 247.595 327.52 249.366C328.7 262.354 341.688 288.92 355.266 271.209C366.129 257.041 352.314 238.543 344.049 231.066C344.049 222.21 342.328 217.267 344.049 212.765C351.724 192.693 339.327 195.054 338.146 200.958Z" fill="#FBE3DB" stroke="#FBE3DB"/>
<path d="M281.472 295.382C291.862 271.768 317.287 256.222 328.11 251.696C334.25 293.257 368.844 275.31 355.857 245.202C364.121 244.612 393.639 267.045 397.771 269.997C401.904 272.949 417.843 353.827 414.892 345.562C412.53 338.95 374.551 336.51 355.857 336.116L361.76 340.839L358.218 362.092L271.436 345.562L281.472 295.382Z" fill="url(#paint1_linear)"/>
<path d="M226.57 294.781L233.654 346.141L296.821 386.285L340.507 375.069L325.158 367.394L317.484 299.504L226.57 294.781Z" fill="#D9DADD" stroke="#D9DADD"/>
<path d="M263.171 366.804H325.158L340.507 375.069L292.689 386.285L263.171 366.804Z" fill="#C4C4C4"/>
<path d="M370.615 367.956L292.689 387.438L330.471 427.582C353.566 430.881 380.54 425.243 391.798 419.94C391.846 419.917 391.892 419.89 391.936 419.86C433.161 391.531 404.247 356.155 370.615 367.956Z" fill="#5369A4"/>
<path d="M365.703 429.149C359.548 410.219 339.053 404.623 330.36 404.26L332.721 420.2C351.71 442.771 361.254 443.441 365.013 439.271C367.399 436.623 366.805 432.539 365.703 429.149Z" fill="white"/>
<path d="M363.39 431.498C357.56 412.314 339.056 405.213 330.36 404.851V422.562C349.348 445.133 358.892 445.803 362.651 441.632C365.037 438.984 364.426 434.909 363.39 431.498Z" fill="#D2028B"/>
<path d="M347.48 420.2C345.709 426.104 347.48 425.514 342.167 429.056M353.974 424.923C352.203 430.827 353.974 430.236 348.661 433.779" stroke="#FF82D4"/>
<path d="M227.998 337.903C270.953 369.52 314.326 393.153 330.65 401.02V426.995C277.283 428.412 235.21 405.546 220.845 393.935C167.771 351.04 204.235 326.099 227.852 337.814C227.903 337.839 227.952 337.869 227.998 337.903Z" fill="#30468D"/>
<path d="M314.716 219.153L318.221 217.651" stroke="#8B8B8B"/>
<circle cx="306.204" cy="223.158" r="9.76432" stroke="#8B8B8B" stroke-width="1.5"/>
<circle cx="326.232" cy="213.144" r="9.76432" stroke="#8B8B8B" stroke-width="1.5"/>
<path d="M325.661 214.37C325.661 213.995 325.77 213.682 325.989 213.432C326.215 213.182 326.551 213.057 326.997 213.057C327.442 213.057 327.778 213.182 328.004 213.432C328.239 213.682 328.356 213.995 328.356 214.37C328.356 214.729 328.239 215.03 328.004 215.272C327.778 215.514 327.442 215.635 326.997 215.635C326.551 215.635 326.215 215.514 325.989 215.272C325.77 215.03 325.661 214.729 325.661 214.37Z" fill="black"/>
<path d="M303.764 225.318C303.764 224.943 303.874 224.631 304.092 224.381C304.319 224.131 304.655 224.006 305.1 224.006C305.545 224.006 305.881 224.131 306.108 224.381C306.342 224.631 306.459 224.943 306.459 225.318C306.459 225.677 306.342 225.978 306.108 226.22C305.881 226.463 305.545 226.584 305.1 226.584C304.655 226.584 304.319 226.463 304.092 226.22C303.874 225.978 303.764 225.677 303.764 225.318Z" fill="black"/>
<path d="M320.241 238.668C323.144 239.912 329.696 239.788 330.194 231.826" stroke="#FF4000" stroke-width="1.5"/>
<g clip-path="url(#clip0)">
<path d="M92.4171 369.038L24.8991 350.947C23.9177 350.684 23.3354 349.675 23.5984 348.694C23.8613 347.712 24.8699 347.13 25.8513 347.393L93.3692 365.484C94.3506 365.747 94.9329 366.756 94.6699 367.737C94.407 368.719 93.3984 369.301 92.4171 369.038Z" fill="#6BDDDD"/>
<path d="M39.2303 347.804L31.827 345.82C31.0094 345.601 30.5241 344.76 30.7431 343.943L39.0747 312.849C39.2938 312.031 40.1345 311.546 40.9521 311.765L48.3554 313.749C49.173 313.968 49.6584 314.809 49.4393 315.626L41.1077 346.72C40.8887 347.538 40.048 348.023 39.2303 347.804Z" fill="#A4C9FF"/>
<path d="M55.8139 352.247L48.4106 350.264C47.593 350.045 47.1076 349.204 47.3267 348.386L53.0661 326.966C53.2852 326.149 54.1259 325.663 54.9435 325.882L62.3468 327.866C63.1645 328.085 63.6498 328.926 63.4308 329.743L57.6913 351.164C57.4722 351.981 56.6315 352.467 55.8139 352.247Z" fill="#A4C9FF"/>
<path d="M72.397 356.691L64.9938 354.707C64.1761 354.488 63.6908 353.648 63.9098 352.83L75.3096 310.286C75.5286 309.468 76.3693 308.983 77.187 309.202L84.5902 311.185C85.4079 311.404 85.8932 312.245 85.6742 313.063L74.2744 355.607C74.0554 356.425 73.2147 356.91 72.397 356.691Z" fill="#A4C9FF"/>
<path d="M88.9806 361.135L81.5773 359.151C80.7597 358.932 80.2743 358.091 80.4934 357.273L88.8249 326.18C89.044 325.362 89.8847 324.877 90.7023 325.096L98.1056 327.079C98.9232 327.299 99.4086 328.139 99.1895 328.957L90.858 360.051C90.6389 360.868 89.7982 361.354 88.9806 361.135Z" fill="#A4C9FF"/>
<path d="M60.7743 318.928C60.5558 318.869 60.3595 318.743 60.2158 318.564L46.8857 301.979C46.5144 301.517 46.5881 300.841 47.0497 300.47C47.5114 300.099 48.1871 300.172 48.5585 300.634L61.1673 316.322L83.9681 295.192C84.2025 294.975 84.5214 294.874 84.838 294.916C85.1553 294.957 85.4362 295.138 85.606 295.409L98.0632 315.251C98.3785 315.753 98.227 316.415 97.7253 316.73C97.2237 317.046 96.5613 316.894 96.246 316.392L84.4772 297.647L61.7816 318.678C61.5632 318.881 61.2704 318.983 60.9738 318.962C60.9056 318.957 60.8392 318.945 60.7743 318.928Z" fill="#4671C6"/>
<path d="M47.0934 303.652C48.3887 303.999 49.7201 303.23 50.0672 301.935C50.4142 300.64 49.6456 299.308 48.3502 298.961C47.0549 298.614 45.7235 299.383 45.3764 300.678C45.0294 301.973 45.7981 303.305 47.0934 303.652Z" fill="#FFEA92"/>
<path d="M60.4237 320.237C61.719 320.584 63.0504 319.815 63.3975 318.52C63.7446 317.224 62.9759 315.893 61.6806 315.546C60.3853 315.199 59.0538 315.968 58.7068 317.263C58.3597 318.558 59.1284 319.89 60.4237 320.237Z" fill="#FFEA92"/>
<path d="M84.069 298.325C85.3643 298.672 86.6957 297.903 87.0428 296.608C87.3898 295.312 86.6211 293.981 85.3258 293.634C84.0305 293.287 82.6991 294.055 82.352 295.351C82.005 296.646 82.7736 297.977 84.069 298.325Z" fill="#FFEA92"/>
<path d="M96.5262 318.167C97.8215 318.514 99.1529 317.745 99.5 316.45C99.8471 315.155 99.0784 313.823 97.7831 313.476C96.4878 313.129 95.1564 313.898 94.8093 315.193C94.4622 316.488 95.2309 317.82 96.5262 318.167Z" fill="#FFEA92"/>
<path d="M46.9346 304.244C45.3148 303.81 44.3501 302.139 44.7842 300.519C45.2182 298.9 46.8891 297.935 48.5089 298.369C50.1288 298.803 51.0934 300.474 50.6594 302.094C50.2254 303.714 48.5545 304.678 46.9346 304.244ZM48.1915 299.553C47.2249 299.294 46.2278 299.87 45.9687 300.837C45.7096 301.804 46.2855 302.801 47.252 303.06C48.2186 303.319 49.2158 302.743 49.4749 301.776C49.7339 300.809 49.1581 299.812 48.1915 299.553Z" fill="#3762CC"/>
<path d="M60.2647 320.829C58.6449 320.395 57.6802 318.724 58.1142 317.104C58.5483 315.485 60.2192 314.52 61.839 314.954C63.4588 315.388 64.4235 317.059 63.9895 318.679C63.5554 320.298 61.8846 321.263 60.2647 320.829ZM61.5216 316.138C60.555 315.879 59.5578 316.455 59.2988 317.422C59.0397 318.389 59.6155 319.386 60.5821 319.645C61.5487 319.904 62.5459 319.328 62.805 318.361C63.064 317.394 62.4882 316.397 61.5216 316.138Z" fill="#3762CC"/>
<path d="M83.9102 298.917C82.2904 298.483 81.3257 296.812 81.7597 295.192C82.1938 293.572 83.8647 292.607 85.4845 293.042C87.1043 293.476 88.069 295.146 87.635 296.766C87.201 298.386 85.5301 299.351 83.9102 298.917ZM85.1671 294.226C84.2005 293.967 83.2033 294.543 82.9443 295.509C82.6852 296.476 83.2611 297.473 84.2276 297.732C85.1942 297.991 86.1914 297.416 86.4505 296.449C86.7095 295.482 86.1337 294.485 85.1671 294.226Z" fill="#3762CC"/>
<path d="M96.3675 318.759C94.7477 318.325 93.783 316.654 94.217 315.035C94.6511 313.415 96.3219 312.45 97.9418 312.884C99.5616 313.318 100.526 314.989 100.092 316.609C99.6582 318.229 97.9873 319.193 96.3675 318.759ZM97.6244 314.069C96.6578 313.81 95.6606 314.385 95.4015 315.352C95.1425 316.319 95.7183 317.316 96.6849 317.575C97.6515 317.834 98.6487 317.258 98.9077 316.291C99.1668 315.325 98.591 314.328 97.6244 314.069Z" fill="#3762CC"/>
<path d="M92.2583 369.63L24.7404 351.539C23.4341 351.189 22.6561 349.841 23.0061 348.535C23.3561 347.229 24.7037 346.451 26.0099 346.801L93.5279 364.892C94.8341 365.242 95.6122 366.59 95.2622 367.896C94.9122 369.202 93.5646 369.98 92.2583 369.63ZM25.6925 347.985C25.0393 347.81 24.3657 348.199 24.1906 348.852C24.0156 349.506 24.4045 350.179 25.0577 350.354L92.5757 368.446C93.229 368.621 93.9026 368.232 94.0776 367.579C94.2527 366.925 93.8638 366.252 93.2105 366.077L25.6925 347.985Z" fill="#3762CC"/>
<path d="M39.0716 348.396L31.6683 346.413C30.5253 346.106 29.8446 344.927 30.1508 343.784L38.4824 312.69C38.7886 311.548 39.9677 310.867 41.1108 311.173L48.5141 313.157C49.6571 313.463 50.3377 314.642 50.0315 315.785L41.7 346.879C41.3938 348.022 40.2147 348.703 39.0716 348.396ZM40.7934 312.357C40.3036 312.226 39.7982 312.518 39.6669 313.008L31.3354 344.102C31.2041 344.591 31.4959 345.097 31.9857 345.228L39.389 347.212C39.8788 347.343 40.3842 347.051 40.5154 346.561L48.847 315.468C48.9783 314.978 48.6865 314.472 48.1967 314.341L40.7934 312.357Z" fill="#3762CC"/>
<path d="M55.6549 352.84L48.2516 350.856C47.1085 350.55 46.4279 349.371 46.7341 348.228L52.4736 326.808C52.7798 325.665 53.9589 324.984 55.102 325.29L62.5053 327.274C63.6483 327.58 64.3289 328.76 64.0227 329.902L58.2833 351.322C57.977 352.465 56.798 353.146 55.6549 352.84ZM54.7846 326.475C54.2948 326.344 53.7894 326.635 53.6581 327.125L47.9187 348.545C47.7874 349.035 48.0792 349.54 48.569 349.672L55.9723 351.655C56.4621 351.787 56.9675 351.495 57.0987 351.005L62.8382 329.585C62.9695 329.095 62.6777 328.59 62.1879 328.459L54.7846 326.475Z" fill="#3762CC"/>
<path d="M72.2383 357.283L64.835 355.3C63.692 354.993 63.0113 353.814 63.3176 352.671L74.7173 310.127C75.0235 308.984 76.2026 308.303 77.3456 308.609L84.7489 310.593C85.892 310.899 86.5726 312.079 86.2664 313.221L74.8667 355.766C74.5605 356.909 73.3814 357.59 72.2383 357.283ZM77.0282 309.794C76.5384 309.663 76.033 309.954 75.9018 310.444L64.5021 352.989C64.3708 353.478 64.6626 353.984 65.1524 354.115L72.5557 356.099C73.0455 356.23 73.5509 355.938 73.6822 355.448L85.0819 312.904C85.2131 312.414 84.9213 311.909 84.4315 311.778L77.0282 309.794Z" fill="#3762CC"/>
<path d="M88.8216 361.727L81.4183 359.743C80.2753 359.437 79.5946 358.258 79.9008 357.115L88.2324 326.021C88.5386 324.878 89.7177 324.197 90.8608 324.503L98.264 326.487C99.4071 326.793 100.088 327.973 99.7815 329.115L91.45 360.209C91.1438 361.352 89.9647 362.033 88.8216 361.727ZM90.5434 325.688C90.0536 325.557 89.5482 325.849 89.4169 326.338L81.0854 357.432C80.9541 357.922 81.2459 358.427 81.7357 358.559L89.139 360.542C89.6288 360.674 90.1342 360.382 90.2654 359.892L98.597 328.798C98.7282 328.308 98.4365 327.803 97.9467 327.672L90.5434 325.688Z" fill="#3762CC"/>
</g>
<g clip-path="url(#clip1)">
<path d="M280.292 160.995L241.675 172.093C240.695 172.375 239.654 171.747 239.35 170.692L223.964 117.154C223.661 116.098 224.21 115.013 225.19 114.732L263.807 103.634C264.787 103.352 265.828 103.98 266.132 105.036L281.518 158.573C281.821 159.629 281.272 160.714 280.292 160.995Z" fill="#E0EBFC" fill-opacity="0.62"/>
<path d="M262.694 118.153L233.842 126.445C233.23 126.621 232.579 126.229 232.389 125.569L231.016 120.789C230.826 120.129 231.169 119.451 231.782 119.275L260.633 110.983C261.246 110.807 261.897 111.199 262.086 111.859L263.46 116.64C263.65 117.3 263.307 117.977 262.694 118.153Z" fill="#3762CC" fill-opacity="0.53"/>
<path d="M242.419 139.567L237.98 140.843C237.367 141.019 236.717 140.627 236.527 139.967L235.153 135.187C234.964 134.527 235.307 133.849 235.919 133.673L240.358 132.397C240.971 132.221 241.622 132.613 241.811 133.273L243.185 138.053C243.375 138.713 243.032 139.391 242.419 139.567Z" fill="#A4C9FF"/>
<path d="M266.145 130.161L246.984 135.668C246.372 135.844 245.721 135.452 245.531 134.792C245.342 134.132 245.685 133.454 246.297 133.278L265.458 127.771C266.07 127.595 266.721 127.988 266.911 128.647C267.101 129.307 266.758 129.985 266.145 130.161Z" fill="#A4C9FF"/>
<path d="M245.853 151.518L241.414 152.793C240.802 152.97 240.151 152.577 239.961 151.917L238.588 147.137C238.398 146.477 238.741 145.799 239.354 145.623L243.793 144.348C244.405 144.172 245.056 144.564 245.246 145.224L246.619 150.004C246.809 150.664 246.466 151.342 245.853 151.518Z" fill="#A4C9FF"/>
<path d="M269.579 142.112L250.419 147.618C249.806 147.794 249.155 147.402 248.966 146.742C248.776 146.082 249.119 145.404 249.732 145.228L268.892 139.722C269.505 139.546 270.156 139.938 270.345 140.598C270.535 141.258 270.192 141.936 269.579 142.112Z" fill="#A4C9FF"/>
<path d="M249.287 163.468L244.849 164.744C244.236 164.92 243.585 164.527 243.396 163.868L242.022 159.087C241.832 158.427 242.175 157.75 242.788 157.573L247.227 156.298C247.84 156.122 248.49 156.514 248.68 157.174L250.054 161.954C250.243 162.614 249.9 163.292 249.287 163.468Z" fill="#A4C9FF"/>
<path d="M273.013 154.062L253.853 159.568C253.24 159.745 252.589 159.352 252.4 158.692C252.21 158.032 252.553 157.355 253.166 157.178L272.326 151.672C272.939 151.496 273.59 151.888 273.78 152.548C273.969 153.208 273.626 153.886 273.013 154.062Z" fill="#A4C9FF"/>
<path d="M239.992 138.88C239.978 138.884 239.963 138.888 239.949 138.892C239.52 139 239.064 138.898 238.699 138.611L236.002 136.497C235.588 136.172 235.487 135.562 235.776 135.133C236.064 134.705 236.635 134.621 237.048 134.945L239.41 136.797L242.197 130.292C242.403 129.81 242.944 129.614 243.405 129.852C243.866 130.091 244.072 130.675 243.866 131.157L240.911 138.052C240.735 138.463 240.402 138.762 239.992 138.88Z" fill="#FFEA92"/>
<path d="M243.522 151.163C243.508 151.167 243.494 151.171 243.479 151.174C243.05 151.283 242.594 151.18 242.229 150.894L239.532 148.78C239.118 148.455 239.017 147.845 239.306 147.416C239.594 146.987 240.165 146.903 240.578 147.228L242.94 149.08L245.727 142.575C245.933 142.093 246.474 141.896 246.935 142.135C247.396 142.374 247.602 142.958 247.396 143.439L244.441 150.335C244.265 150.745 243.932 151.045 243.522 151.163Z" fill="#FFEA92"/>
<path d="M246.893 162.892C246.879 162.896 246.864 162.9 246.85 162.903C246.42 163.012 245.965 162.91 245.599 162.623L242.903 160.509C242.489 160.184 242.387 159.574 242.677 159.145C242.965 158.717 243.536 158.633 243.949 158.957L246.311 160.809L249.098 154.304C249.304 153.822 249.845 153.626 250.306 153.864C250.767 154.103 250.973 154.687 250.766 155.169L247.812 162.064C247.636 162.475 247.303 162.774 246.893 162.892Z" fill="#FFEA92"/>
<path d="M280.429 161.474L241.812 172.571C240.589 172.923 239.285 172.137 238.906 170.819L223.52 117.282C223.141 115.964 223.829 114.605 225.053 114.254L263.669 103.156C264.893 102.804 266.197 103.59 266.576 104.908L281.962 158.446C282.34 159.764 281.653 161.122 280.429 161.474ZM225.327 115.21C224.593 115.421 224.181 116.236 224.408 117.027L239.794 170.564C240.021 171.355 240.803 171.827 241.538 171.615L280.154 160.517C280.889 160.306 281.301 159.492 281.074 158.701L265.688 105.163C265.461 104.372 264.678 103.901 263.944 104.112L225.327 115.21Z" fill="#3762CC" fill-opacity="0.45"/>
<path d="M272.166 113.325L280.824 143.454L274.078 145.392L265.42 115.264L272.166 113.325Z" fill="#4671C6"/>
<path d="M280.824 143.454L274.078 145.393L278.379 149.411C278.687 149.698 279.204 149.55 279.313 149.143L280.824 143.454Z" fill="#F9CFCF"/>
<path d="M265.42 115.264L264.473 111.971C264.254 111.209 264.65 110.427 265.358 110.224L269.542 109.021C270.249 108.818 271 109.271 271.219 110.033L272.166 113.325L265.42 115.264L265.42 115.264Z" fill="#6BDDDD"/>
<path d="M279.313 149.143L280.028 146.451L276.344 147.509L278.38 149.411C278.688 149.698 279.205 149.55 279.313 149.143Z" fill="#4671C6"/>
<path d="M280.962 143.932L274.216 145.871C273.971 145.941 273.71 145.784 273.635 145.52L264.976 115.391C264.9 115.127 265.037 114.856 265.282 114.786L272.029 112.847C272.274 112.777 272.534 112.934 272.61 113.197L281.269 143.326C281.344 143.59 281.207 143.861 280.962 143.932ZM274.385 144.787L280.243 143.103L271.86 113.931L266.001 115.614L274.385 144.787L274.385 144.787Z" fill="#3762CC"/>
<path d="M279.058 150.015C278.712 150.115 278.347 150.026 278.081 149.777L273.779 145.758C273.649 145.637 273.589 145.452 273.623 145.275C273.656 145.099 273.778 144.961 273.941 144.914L280.687 142.975C280.85 142.929 281.026 142.981 281.148 143.113C281.271 143.244 281.318 143.433 281.272 143.605L279.76 149.294C279.667 149.646 279.404 149.916 279.058 150.015ZM275.03 145.636L278.678 149.045C278.732 149.096 278.846 149.063 278.865 148.991L280.147 144.166L275.03 145.636Z" fill="#3762CC"/>
<path d="M272.303 113.803L265.557 115.742C265.312 115.812 265.052 115.655 264.976 115.391L264.03 112.099C263.735 111.075 264.27 110.019 265.221 109.746L269.405 108.543C270.356 108.27 271.369 108.881 271.664 109.905L272.61 113.197C272.686 113.462 272.548 113.733 272.303 113.803ZM265.726 114.658L271.585 112.975L270.776 110.16C270.633 109.663 270.141 109.367 269.68 109.499L265.495 110.702C265.034 110.834 264.775 111.347 264.917 111.844L265.726 114.658L265.726 114.658Z" fill="#3762CC"/>
</g>
<path d="M366.312 43.9226C367.278 45.4904 368.327 46.7615 369.462 47.7347C370.596 48.7078 371.895 49.5635 373.354 50.2997C374.815 51.0363 376.12 51.577 377.269 51.9218C378.421 52.2679 379.599 52.5442 380.808 52.7523C382.017 52.9604 382.832 53.0828 383.253 53.1191C383.674 53.1557 384 53.1741 384.231 53.1738C381.026 54.309 377.99 55.7537 375.125 57.5097L374.707 57.0093C374.429 56.6756 374.018 56.2469 373.474 55.7222C372.93 55.1974 372.287 54.6149 371.546 53.9748C370.806 53.3354 369.956 52.7225 368.998 52.138C368.04 51.5538 367.027 51.0092 365.96 50.5042C364.893 49.9982 363.734 49.637 362.479 49.4185C361.225 49.1991 359.965 49.1288 358.702 49.2082C357.438 49.2876 356.095 49.6249 354.673 50.2205C353.25 50.8144 351.876 51.6648 350.553 52.7712C351.485 54.2653 352.565 55.5698 353.792 56.6835C355.019 57.7975 356.218 58.6453 357.389 59.2285C358.56 59.8118 359.808 60.2654 361.135 60.5924C362.461 60.918 363.603 61.1173 364.56 61.1913C365.517 61.2638 366.482 61.2709 367.453 61.2102C368.426 61.1505 369.074 61.0964 369.398 61.0475C369.723 60.9989 369.971 60.9488 370.145 60.898C369.696 61.2603 369.098 61.7744 368.348 62.439C367.598 63.1035 367.192 63.4807 367.129 63.5711L366.556 63.721C366.154 63.8031 365.644 63.9653 365.025 64.2062C364.407 64.4476 363.713 64.7382 362.944 65.079C362.174 65.4201 361.418 65.8682 360.677 66.4234C359.935 66.9781 359.225 67.5983 358.549 68.2839C357.871 68.969 357.336 69.7937 356.941 70.758C356.547 71.722 356.309 72.7519 356.228 73.8471C356.147 74.9426 356.331 76.2212 356.781 77.6834C357.23 79.1456 357.953 80.6809 358.948 82.2901C361.052 82.1656 362.868 81.7503 364.396 81.0442C365.924 80.3383 367.086 79.513 367.883 78.5683C368.679 77.6235 369.288 76.521 369.709 75.2599C370.131 73.9987 370.377 72.8597 370.447 71.842C370.517 70.8243 370.493 69.761 370.378 68.6525C370.262 67.5434 370.156 66.8006 370.061 66.4251C369.966 66.0488 369.891 65.7496 369.835 65.5249C371.037 64.4586 372.76 63.1365 375.002 61.5595L374.722 62.0117C374.572 62.3163 374.4 62.7412 374.209 63.2864C374.017 63.8316 373.821 64.4747 373.62 65.2161C373.419 65.9572 373.305 66.7755 373.277 67.67C373.249 68.5643 373.287 69.4868 373.388 70.4378C373.49 71.3881 373.787 72.3795 374.278 73.4117C374.77 74.444 375.409 75.4467 376.197 76.4207C376.985 77.3949 378.062 78.3602 379.426 79.3182C380.791 80.276 382.378 81.1467 384.189 81.9303C385.227 80.8056 386.003 79.6313 386.516 78.4082C387.03 77.1848 387.283 76.0303 387.276 74.9446C387.269 73.8593 387.081 72.7453 386.714 71.6036C386.346 70.4617 385.887 69.436 385.335 68.5254C384.784 67.6148 384.12 66.6928 383.345 65.7595C382.569 64.8258 381.866 64.0586 381.235 63.4572C380.604 62.8557 379.939 62.26 379.237 61.6698C378.537 61.0799 378.068 60.7014 377.831 60.536C377.593 60.3702 377.4 60.2351 377.248 60.1303C380.386 58.2369 383.546 56.7842 386.726 55.7738C386.482 56.8431 386.352 57.9233 386.333 59.0155C386.314 60.107 386.533 61.4231 386.989 62.9641C387.446 64.5057 388.18 65.9787 389.193 67.3845C390.207 68.7902 391.759 70.2721 393.852 71.8303C395.945 73.3878 398.477 74.7945 401.45 76.0501C402.181 74.2753 402.666 72.5744 402.905 70.9466C403.142 69.3197 403.152 67.8691 402.933 66.5956C402.714 65.3222 402.312 64.1076 401.731 62.951C401.149 61.7951 400.487 60.7944 399.746 59.9497C399.004 59.1052 398.148 58.3117 397.176 57.5692C396.203 56.8268 395.296 56.2154 394.454 55.7327C393.611 55.251 392.728 54.8055 391.803 54.3968C396.868 53.3886 401.719 53.3802 406.356 54.3722C410.993 55.3637 414.988 57.326 418.34 60.2591C418.706 60.5829 419.118 60.7644 419.575 60.8028C420.031 60.8417 420.416 60.7227 420.729 60.4451C421.042 60.1677 421.18 59.8235 421.144 59.4118C421.107 59.0008 420.906 58.6328 420.54 58.309C416.513 54.7799 411.715 52.471 406.145 51.385C400.575 50.2987 394.822 50.4578 388.887 51.863L388.642 51.2094C388.498 50.7907 388.24 50.2344 387.867 49.5409C387.496 48.8471 387.052 48.054 386.537 47.1621C386.023 46.2697 385.371 45.3728 384.58 44.4695C383.79 43.566 382.929 42.6819 381.999 41.8164C381.069 40.9512 379.972 40.1919 378.705 39.54C377.439 38.8878 376.101 38.3842 374.693 38.0294C373.285 37.6738 371.677 37.545 369.873 37.643C368.069 37.7393 366.2 38.0999 364.265 38.7233C364.665 40.6227 365.347 42.3557 366.312 43.9226Z" fill="white"/>
<path d="M357.419 81.6888C359.772 82.9211 362.002 83.773 364.113 84.2418C366.223 84.711 368.444 84.9569 370.772 84.9791C373.101 85.0013 375.094 84.8887 376.752 84.6411C378.412 84.3941 380.053 84.0536 381.679 83.6192C383.306 83.1847 384.39 82.8716 384.929 82.6796C385.468 82.4879 385.879 82.3283 386.16 82.2001C383.113 85.253 380.504 88.5608 378.337 92.1253L377.453 91.7926C376.864 91.5705 376.042 91.3147 374.987 91.0243C373.931 90.7338 372.712 90.4331 371.331 90.1214C369.951 89.8102 368.457 89.5898 366.852 89.4615C365.248 89.3332 363.608 89.2795 361.932 89.3007C360.254 89.3207 358.572 89.5555 356.882 90.0031C355.191 90.4501 353.607 91.0679 352.129 91.8564C350.652 92.6452 349.271 93.7683 347.988 95.2264C346.703 96.6833 345.67 98.4016 344.891 100.38C347.146 101.549 349.438 102.422 351.767 102.998C354.095 103.574 356.191 103.866 358.053 103.876C359.915 103.885 361.773 103.706 363.633 103.34C365.49 102.973 367.029 102.566 368.249 102.12C369.467 101.672 370.646 101.146 371.782 100.54C372.92 99.9352 373.667 99.5158 374.025 99.2811C374.384 99.0467 374.648 98.8528 374.821 98.6996C374.548 99.3559 374.206 100.266 373.793 101.43C373.379 102.594 373.167 103.244 373.159 103.381L372.574 103.867C372.147 104.182 371.648 104.647 371.077 105.26C370.506 105.875 369.88 106.586 369.2 107.396C368.519 108.206 367.937 109.129 367.451 110.165C366.965 111.201 366.567 112.293 366.259 113.44C365.949 114.587 365.916 115.812 366.16 117.117C366.404 118.422 366.888 119.714 367.611 120.993C368.334 122.273 369.518 123.612 371.162 125.011C372.806 126.41 374.837 127.741 377.256 129.004C379.722 127.699 381.619 126.227 382.948 124.585C384.277 122.944 385.071 121.371 385.331 119.866C385.59 118.361 385.503 116.781 385.07 115.126C384.636 113.472 384.081 112.052 383.402 110.866C382.723 109.681 381.897 108.495 380.925 107.31C379.951 106.124 379.265 105.346 378.867 104.975C378.469 104.604 378.153 104.308 377.916 104.086C378.58 102.218 379.683 99.7751 381.227 96.7572L381.225 97.4219C381.271 97.8485 381.381 98.4221 381.558 99.1425C381.734 99.8628 381.977 100.696 382.29 101.643C382.601 102.59 383.076 103.575 383.714 104.599C384.351 105.622 385.089 106.641 385.926 107.656C386.763 108.671 387.868 109.624 389.24 110.516C390.613 111.407 392.143 112.183 393.833 112.845C395.523 113.507 397.557 113.999 399.935 114.324C402.314 114.648 404.898 114.751 407.689 114.632C408.107 112.791 408.17 111.038 407.877 109.375C407.584 107.712 407.026 106.271 406.202 105.051C405.379 103.832 404.314 102.68 403.011 101.597C401.706 100.514 400.378 99.6119 399.024 98.8907C397.669 98.1694 396.171 97.4974 394.526 96.8749C392.882 96.2518 391.451 95.7762 390.232 95.4475C389.014 95.1186 387.757 94.8154 386.461 94.5383C385.166 94.2612 384.312 94.094 383.899 94.0388C383.486 93.9833 383.149 93.9382 382.886 93.9042C385.282 90.0339 388.036 86.6483 391.146 83.7499C391.652 85.0898 392.304 86.3793 393.1 87.6209C393.897 88.8613 395.15 90.2236 396.862 91.7079C398.574 93.1927 400.573 94.4462 402.86 95.4703C405.148 96.4936 408.148 97.305 411.863 97.9031C415.579 98.5001 419.715 98.6843 424.273 98.4547C423.831 96.0499 423.144 93.8646 422.212 91.8982C421.28 89.9332 420.204 88.2926 418.982 86.9788C417.759 85.6651 416.36 84.5181 414.784 83.5364C413.209 82.5557 411.652 81.7944 410.117 81.2523C408.581 80.7108 406.944 80.2905 405.204 79.9915C403.464 79.6929 401.902 79.5057 400.515 79.4277C399.129 79.351 397.72 79.3375 396.288 79.3889C401.693 75.4502 407.587 72.7566 413.972 71.3091C420.357 69.8605 426.689 69.8616 432.968 71.3127C433.656 71.4749 434.293 71.4518 434.878 71.2423C435.462 71.0335 435.841 70.6866 436.013 70.2005C436.186 69.7148 436.095 69.2504 435.742 68.8064C435.39 68.3634 434.869 68.0599 434.18 67.8977C426.634 66.1484 419.065 66.2008 411.474 68.0587C403.883 69.9165 397.005 73.2789 390.84 78.1466L390.051 77.5456C389.562 77.1533 388.83 76.6694 387.857 76.0938C386.884 75.5176 385.749 74.8691 384.454 74.1487C383.158 73.4275 381.692 72.7776 380.052 72.1973C378.412 71.6162 376.702 71.0962 374.922 70.635C373.141 70.1744 371.236 69.926 369.206 69.8923C367.176 69.8579 365.171 70.0304 363.192 70.4096C361.212 70.7881 359.16 71.5322 357.04 72.6407C354.917 73.7476 352.914 75.1882 351.028 76.9618C352.94 78.8808 355.07 80.4566 357.419 81.6888Z" fill="#5682EB"/>
<ellipse rx="2.84667" ry="1.10336" transform="matrix(0.964878 -0.262699 0.328264 0.944586 246.307 73.7592)" fill="white"/>
<ellipse rx="2.84672" ry="1.1036" transform="matrix(0.964862 -0.262757 0.328194 0.944611 154.35 76.6661)" fill="white"/>
<ellipse rx="2.84661" ry="1.10325" transform="matrix(0.964883 -0.262682 0.328285 0.944579 302.958 128.99)" fill="white"/>
<ellipse rx="2.84667" ry="1.10336" transform="matrix(0.964878 -0.262699 0.328264 0.944586 327.59 202.389)" fill="white"/>
<ellipse rx="2.84672" ry="1.10346" transform="matrix(0.964872 -0.262722 0.328236 0.944596 192.118 278.695)" fill="white"/>
<ellipse rx="2.84668" ry="1.10322" transform="matrix(0.964887 -0.262666 0.328303 0.944573 112.477 275.061)" fill="white"/>
<ellipse rx="2.84666" ry="1.10329" transform="matrix(0.964882 -0.262682 0.328283 0.944579 146.139 308.49)" fill="white"/>
<ellipse rx="2.8467" ry="1.10324" transform="matrix(0.964884 -0.262677 0.32829 0.944577 171.592 437.847)" fill="white"/>
<ellipse rx="2.84672" ry="1.10342" transform="matrix(0.964873 -0.262716 0.328243 0.944593 123.15 378.256)" fill="white"/>
<ellipse rx="2.84666" ry="1.10325" transform="matrix(0.964884 -0.262677 0.32829 0.944577 59.1089 400.058)" fill="white"/>
<ellipse rx="2.84669" ry="1.10338" transform="matrix(0.964875 -0.26271 0.32825 0.944591 437.609 189.308)" fill="white"/>
<ellipse rx="2.84673" ry="1.1034" transform="matrix(0.964877 -0.262703 0.328259 0.944588 151.065 237.272)" fill="white"/>
<ellipse rx="2.84669" ry="1.10338" transform="matrix(0.964875 -0.26271 0.32825 0.944591 76.3506 265.614)" fill="white"/>
<ellipse rx="2.84667" ry="1.10333" transform="matrix(0.96488 -0.262691 0.328274 0.944583 529.566 163.873)" fill="white"/>
<ellipse rx="2.8467" ry="1.10342" transform="matrix(0.964873 -0.262718 0.32824 0.944594 226.602 378.256)" fill="white"/>
<ellipse rx="2.8467" ry="1.10342" transform="matrix(0.964872 -0.262718 0.32824 0.944594 528.745 256.166)" fill="white"/>
<ellipse rx="2.84673" ry="1.1034" transform="matrix(0.964877 -0.262703 0.328259 0.944588 563.229 352.094)" fill="white"/>
<ellipse rx="2.84669" ry="1.10343" transform="matrix(0.964873 -0.262716 0.328244 0.944593 450.746 78.8462)" fill="white"/>
<defs>
<linearGradient id="paint0_linear" x1="298.259" y1="27.9838" x2="236.992" y2="492.222" gradientUnits="userSpaceOnUse">
<stop stop-color="#162CE9" stop-opacity="0.53"/>
<stop offset="1" stop-color="#2C83EC" stop-opacity="0.78"/>
</linearGradient>
<linearGradient id="paint1_linear" x1="343.345" y1="245.191" x2="343.345" y2="362.092" gradientUnits="userSpaceOnUse">
<stop stop-color="#6493EB"/>
<stop offset="0.994852" stop-color="#0061D6"/>
</linearGradient>
<clipPath id="clip0">
<rect width="78.4839" height="78.4839" fill="white" transform="translate(40.1143 277.58) rotate(15)"/>
</clipPath>
<clipPath id="clip1">
<rect width="59.1151" height="63.6624" fill="white" transform="translate(217.228 114.95) rotate(-16.034)"/>
</clipPath>
</defs>
</svg>
