<svg width="594" height="468" viewBox="0 0 594 468" fill="none" xmlns="http://www.w3.org/2000/svg">
<path d="M303.644 80.2072C176.756 49.3851 103.913 78.3398 75.8565 102.788C70.0232 107.871 64.6539 113.477 59.3022 119.065L59.2724 119.096C31.5511 148.041 -1.94828 213.136 37.9058 296.853C81.9771 389.428 202.551 357.823 257.328 330.448C339.118 283.828 394.852 283.962 420.558 292.18C427.835 294.506 434.631 298.264 441.88 300.674C550.255 336.71 560.751 276.902 550.124 231.292C547.819 221.398 542.232 212.644 538.447 203.216C525.639 171.316 543.944 137.173 563.304 114.385L563.597 114.039C573.867 101.952 584.438 89.5097 589.047 74.3431C607.005 15.2559 572.232 -0.406668 535.089 0.00796278C509.195 0.29703 488.404 18.7545 468.505 35.3271C425.233 71.3664 364.143 82.2431 327.099 83.1936C319.188 83.3966 311.334 82.075 303.644 80.2072Z" fill="url(#paint0_linear)"/>
<rect x="250.816" y="56.0852" width="195.727" height="74.5625" rx="10" fill="#162CE9" fill-opacity="0.65"/>
<rect x="267.592" y="108.279" width="156.581" height="11.1844" fill="white"/>
<rect x="267.592" y="108.279" width="156.581" height="11.1844" fill="white"/>
<rect x="267.592" y="108.279" width="156.581" height="11.1844" fill="white"/>
<rect x="267.592" y="108.279" width="156.581" height="11.1844" fill="white"/>
<rect x="267.592" y="93.3667" width="156.581" height="11.1844" fill="white"/>
<rect x="267.592" y="93.3667" width="156.581" height="11.1844" fill="white"/>
<rect x="267.592" y="93.3667" width="156.581" height="11.1844" fill="white"/>
<rect x="267.592" y="93.3667" width="156.581" height="11.1844" fill="white"/>
<rect x="267.592" y="74.7256" width="37.2813" height="7.45625" fill="white"/>
<rect x="385.701" y="179.114" width="156.581" height="54.0578" rx="7" transform="rotate(12.6707 385.701 179.114)" fill="#162CE9" fill-opacity="0.58"/>
<rect x="399.294" y="195.594" width="39.1453" height="7.45625" transform="rotate(12.1126 399.294 195.594)" fill="white"/>
<rect x="396.629" y="210.803" width="121.227" height="17.0047" transform="rotate(11.6629 396.629 210.803)" fill="white"/>
<rect x="257.603" y="170.794" width="105.805" height="36.528" rx="7" transform="rotate(-18.9408 257.603 170.794)" fill="#162CE9" fill-opacity="0.41"/>
<rect x="271.262" y="175.463" width="26.4513" height="5.03835" transform="rotate(-19.4989 271.262 175.463)" fill="white"/>
<rect x="275.115" y="185.159" width="81.9155" height="11.4904" transform="rotate(-19.9487 275.115 185.159)" fill="white" fill-opacity="0.71"/>
<path d="M484.387 94.7368L509.225 68.0626L538.383 78.3219L558.902 49.5959" stroke="#6493EB"/>
<ellipse cx="558.902" cy="50.6217" rx="3.23977" ry="3.07778" fill="#0061D6"/>
<ellipse cx="483.307" cy="93.7104" rx="3.23977" ry="3.07778" fill="#0061D6"/>
<ellipse cx="509.225" cy="67.0365" rx="3.23977" ry="3.07778" fill="#0061D6"/>
<ellipse cx="539.463" cy="77.2958" rx="3.23977" ry="3.07778" fill="#0061D6"/>
<rect x="90.7937" y="74.03" width="20.2212" height="20.2212" rx="3" fill="#79A1EE"/>
<rect x="119.103" y="100.317" width="20.2212" height="20.2212" rx="3" fill="#162CE9"/>
<rect x="90.7932" y="100.317" width="20.2212" height="20.2212" rx="3" fill="#0061D6"/>
<rect x="119.103" y="74.03" width="20.2212" height="20.2212" rx="3" fill="#6493EB"/>
<path opacity="0.3" d="M233 458.295C233 463.124 257.321 467.038 287.312 467.038C317.303 467.038 341.624 463.124 341.624 458.295C341.624 453.467 317.306 449.551 287.312 449.551C257.318 449.551 233 453.467 233 458.295Z" fill="#7A9EC3"/>
<path d="M269.009 454.906C268.978 455.512 269.026 456.12 269.15 456.716C269.473 457.437 281.604 460.449 283.383 462.603C285.161 464.756 280.311 466.047 273.68 465.761C267.048 465.475 257.022 462.458 257.182 458.581C257.182 458.488 257.196 458.382 257.201 458.281C261.426 458.205 265.532 457.032 269.009 454.906Z" fill="#00405D"/>
<path d="M269.15 449.96C269.15 449.96 268.995 452.878 269.009 454.897C265.531 457.019 261.425 458.189 257.202 458.262C257.613 454.734 258.309 451.237 259.284 447.797L269.15 449.96Z" fill="#FFD77A"/>
<path d="M303.562 445.817C303.57 445.863 303.583 445.908 303.6 445.951C303.923 446.672 316.051 449.681 317.83 451.835C319.609 453.989 314.759 455.282 308.127 454.993C301.496 454.705 291.47 451.693 291.63 447.816C291.63 447.614 291.657 447.398 291.673 447.179C295.699 447.861 299.866 447.384 303.562 445.817Z" fill="#00405D"/>
<path d="M291.673 447.179C292.105 443.766 292.794 440.382 293.735 437.05L303.6 439.213C303.453 441.415 303.441 443.623 303.562 445.826C299.864 447.39 295.698 447.864 291.673 447.179Z" fill="#FFD77A"/>
<path d="M339.427 227.174L340.704 223.329L339.427 219.242C339.427 219.242 339.503 214.387 341.445 214.387C343.387 214.387 341.928 217.257 341.928 217.257C341.928 217.257 346.105 207.061 349.657 208.07C355.028 209.597 352.117 216.632 350.985 219.242C349.769 221.285 348.05 223.06 345.956 224.437V228.763L339.427 227.174Z" fill="#FBE3DB"/>
<path d="M283.01 256.052C281.213 256.238 279.404 255.791 277.977 254.805C276.55 253.82 275.619 252.377 275.385 250.788C274.859 249.285 274.887 247.673 275.466 246.186C276.046 244.698 277.145 243.413 278.606 242.517C279.98 238.94 282.662 235.871 286.228 233.796C287.923 228.083 286.228 222.067 293.851 223.571C301.474 225.076 309.268 235.895 302.829 240.863C301.645 246.872 302.001 249.735 295.225 250.639C290.68 251.445 286.463 253.314 283.01 256.052Z" fill="#002877"/>
<path d="M344.516 226.028C348.885 227.069 350.338 229.617 349.369 234.784C348.399 239.952 347.739 263.063 338.694 270.528C329.648 277.994 312.817 289.19 304.083 286.462C295.35 283.734 289.851 274.547 297.615 269.954C305.379 265.361 327.859 263.625 330.284 256.455C332.709 249.285 331.256 222.87 344.516 226.028Z" fill="#162CE9"/>
<path d="M275.619 269.379C280.721 269.927 286.78 277.54 280.311 286.88C273.843 296.221 263.328 305.412 262.358 307.422C261.389 309.431 289.691 319.337 289.691 325.509C289.691 331.682 285.808 337.136 272.87 331.538C259.933 325.94 242.627 319.193 243.27 308.568C243.914 297.944 259.768 283.734 263.637 279.429C267.507 275.124 270.283 268.805 275.619 269.379Z" fill="#162CE9"/>
<path d="M270.769 274.833C270.632 273.19 271.113 271.553 272.137 270.178C273.16 268.802 274.669 267.764 276.428 267.226C282.736 265.216 302.305 264.067 309.097 273.398C315.888 282.729 315.245 298.521 315.245 298.521C315.245 298.521 326.403 328.523 319.125 340.008C286.94 346.036 275.782 337.71 275.782 337.71C275.782 337.71 274.812 310.005 277.237 304.838C274.003 293.783 270.445 290.769 270.769 274.833Z" fill="url(#paint1_linear)"/>
<path d="M286.44 267.825C286.414 264.981 285.929 262.156 285.001 259.434C283.06 260.438 280.311 258.14 280.311 255.126C280.311 252.112 281.911 250.819 283.375 251.826V246.8C287.047 245.586 291.038 245.335 294.867 246.079C300.027 247.521 304.407 262.013 298.748 262.587C297.891 262.689 297.024 262.689 296.168 262.587L297.718 268.837C297.718 268.837 288.689 270.476 286.44 267.825Z" fill="#FBE3DB"/>
<path d="M296.168 392.753C295.127 399.214 289.205 429.791 288.477 436.682C287.749 443.573 295.266 444.001 302.791 443.14C310.316 442.28 311.038 418.592 315.163 397.06C319.288 375.529 320.027 338.272 320.027 338.272C320.027 338.272 294.381 342.51 275.781 337.7C275.863 370.575 273.193 397.707 265.191 416.008C257.188 434.309 250.877 445.51 257.185 449.601C263.493 453.692 271.741 454.123 277.079 447.231C282.418 440.34 296.168 392.753 296.168 392.753Z" fill="#5369A4"/>
<path d="M98.6171 277.779L67.2718 300.485L78.6804 311.028L108.765 288.151L98.6171 277.779Z" fill="#281C8B"/>
<path d="M11.473 351.293C6.75318 344.601 8.35147 335.351 15.0429 330.631L54.8322 302.565C61.5236 297.845 70.7742 299.444 75.4941 306.135C80.2139 312.826 78.6156 322.077 71.9242 326.797L32.1349 354.863C25.4435 359.582 16.1928 357.984 11.473 351.293Z" fill="#0061D6"/>
<ellipse cx="140.412" cy="253.202" rx="40.1288" ry="39.6144" transform="rotate(-5.3858 140.412 253.202)" fill="#8EB6FF" fill-opacity="0.45"/>
<path fill-rule="evenodd" clip-rule="evenodd" d="M201.26 241.283C198.855 242.769 197.555 245.507 197.898 248.367L198.059 249.713C198.405 252.602 200.327 255.134 203.054 256.293L203.838 256.627C206.618 257.808 208.412 260.57 207.835 263.439C207.297 266.114 204.959 268.033 202.201 268.237L200.788 268.342C197.826 268.561 195.241 270.254 193.916 272.843L193.123 274.392C191.874 276.832 192.205 279.834 193.973 282.079C195.969 284.615 196.135 288.108 194.005 290.351L193.927 290.433C192.003 292.45 188.937 292.892 186.263 291.755L185.19 291.299C182.405 290.116 179.272 290.327 176.795 291.867L174.726 293.153C172.469 294.555 171.252 297.128 171.574 299.816C171.947 302.934 170.26 305.878 167.287 306.793C167.188 306.823 167.089 306.854 166.989 306.884C164.088 307.762 160.903 306.585 158.972 304.133L158.746 303.846C156.97 301.59 154.189 300.348 151.383 300.556L148.474 300.771C145.649 300.981 143.185 302.597 141.923 305.067C140.438 307.976 137.307 309.684 133.989 309.077C132.563 308.817 131.154 308.524 129.784 308.227C129.722 308.214 129.628 308.21 129.558 308.208C129.548 308.208 129.539 308.207 129.531 308.207C129.126 308.191 128.807 307.758 128.759 307.358L128.128 302.081C127.862 299.858 126.383 297.908 124.286 297.015L121.257 295.724C118.411 294.512 115.208 294.723 112.672 296.29L111.638 296.929C109.38 298.324 106.446 298.363 104.219 296.727C104.163 296.686 104.107 296.645 104.051 296.604C101.388 294.631 100.688 291.05 102.132 288.223C103.356 285.827 103.025 282.88 101.284 280.682L100.206 279.32C98.3105 276.925 95.3507 275.607 92.365 275.828L91.017 275.928C88.2495 276.133 85.4972 274.584 84.4266 271.988C83.263 269.167 84.4272 266.137 86.9457 264.58L87.519 264.226C89.9245 262.74 91.2239 260.002 90.8815 257.141L90.7205 255.796C90.3748 252.907 88.4524 250.374 85.7256 249.215L84.9416 248.882C82.1612 247.7 80.3672 244.939 80.9443 242.069C81.4822 239.395 83.8208 237.476 86.5779 237.272L87.9915 237.167C90.9538 236.947 93.538 235.255 94.8634 232.666L95.6562 231.117C96.9057 228.677 96.5739 225.674 94.8068 223.43C92.8099 220.894 92.6447 217.401 94.7739 215.158L94.8519 215.076C96.7761 213.058 99.8423 212.617 102.516 213.753L103.589 214.209C106.374 215.393 109.507 215.181 111.984 213.642L114.054 212.356C116.31 210.953 117.527 208.38 117.206 205.693C116.832 202.574 118.52 199.63 121.492 198.716C121.591 198.685 121.691 198.655 121.79 198.625C124.691 197.747 127.876 198.923 129.808 201.376L130.033 201.663C131.809 203.918 134.59 205.161 137.396 204.953L140.305 204.737C143.13 204.528 145.594 202.912 146.856 200.442C148.342 197.532 151.472 195.825 154.79 196.431C156.216 196.692 157.625 196.985 158.996 197.282C159.058 197.295 159.151 197.298 159.222 197.301C159.231 197.301 159.24 197.301 159.248 197.302C159.653 197.318 159.972 197.751 160.02 198.151L160.651 203.427C160.917 205.651 162.396 207.6 164.494 208.494L167.522 209.784C170.369 210.997 173.571 210.786 176.107 209.218L177.141 208.579C179.399 207.184 182.333 207.146 184.56 208.781C184.617 208.822 184.673 208.864 184.728 208.905C187.391 210.877 188.091 214.459 186.647 217.285C185.423 219.682 185.755 222.629 187.495 224.827L188.573 226.189C190.469 228.584 193.429 229.902 196.414 229.681L197.762 229.581C200.53 229.376 203.282 230.925 204.353 233.521C205.516 236.342 204.352 239.372 201.834 240.928L201.26 241.283ZM109.055 255.373C111.14 272.789 128.83 285.755 148.269 284.314C167.707 282.873 181.989 267.356 179.905 249.939C177.82 232.523 160.13 219.558 140.691 220.998C121.05 222.454 106.971 237.957 109.055 255.373Z" fill="#162CE9"/>
<path fill-rule="evenodd" clip-rule="evenodd" d="M149.207 294.641C173.033 292.395 190.541 271.418 188.313 247.787C186.085 224.156 164.965 206.821 141.14 209.067C117.314 211.313 99.806 232.291 102.034 255.921C104.262 279.552 125.382 296.888 149.207 294.641ZM147.812 283.605C167.272 281.77 181.694 265.917 180.023 248.197C178.352 230.476 161.222 217.598 141.762 219.433C122.301 221.268 107.879 237.12 109.55 254.841C111.221 272.561 128.351 285.439 147.812 283.605Z" fill="#5682EB"/>
<defs>
<linearGradient id="paint0_linear" x1="306.745" y1="0" x2="306.745" y2="358.635" gradientUnits="userSpaceOnUse">
<stop stop-color="#848FF3" stop-opacity="0.45"/>
<stop offset="1" stop-color="#5B9EF0"/>
</linearGradient>
<linearGradient id="paint1_linear" x1="296.168" y1="265.835" x2="296.168" y2="342.198" gradientUnits="userSpaceOnUse">
<stop stop-color="#162CE9"/>
<stop offset="1" stop-color="#0061D6"/>
</linearGradient>
</defs>
</svg>
