<svg width="675" height="590" viewBox="0 0 675 590" fill="none" xmlns="http://www.w3.org/2000/svg">
<path d="M554.952 112.082C573.729 127.821 615.949 140.596 649.366 141.482C662.401 141.827 674.89 151.842 674.89 164.882V561.015C674.89 567.962 671.303 574.582 665.038 577.585C594.542 611.374 546.885 531.891 516.842 557.231C485.421 583.735 392.229 605.519 258.007 572.195C134.959 541.645 146.722 407.705 155.887 328.615C52.8993 319.796 34.1273 192.311 43.292 135.518C64.8889 1.68256 185.999 63.5793 276.337 74.938C446.538 14.3585 524.84 86.8406 554.952 112.082Z" fill="url(#paint0_linear)"/>
<path d="M317.514 377.808C317.95 376.041 382.817 290.789 418.515 299.182C454.214 307.575 519.952 296.974 546.073 328.777C538.817 407.55 516.347 545.122 493.852 569.002C490.16 572.922 341.458 599.41 324.48 557.447C331.707 515.986 357.359 390.773 362.266 378.724C357.934 383.389 336.423 403.16 324.48 414.029L317.514 377.808Z" fill="url(#paint1_linear)"/>
<path d="M496.007 306.11V318.478C527.353 326.959 529.675 391.95 523.435 422.723L493.787 569.048C503.519 565.663 527.148 549.708 526.407 545.825C525.113 539.051 546.943 340.122 546.073 327.754C545.376 317.86 509.358 308.908 496.007 306.11Z" fill="#6493EB"/>
<path d="M351.907 417.423L374.545 350.723" stroke="#162CE9" stroke-width="2"/>
<path d="M437.671 342.772C426.497 406.38 405.194 535.449 409.374 542.87M409.374 542.87C413.553 550.291 411.115 547.435 409.374 545.079V542.87Z" stroke="#162CE9" stroke-width="2"/>
<path d="M557.828 382.085L518.646 388.269C522.565 438.478 532.142 544.195 570.453 533.152C604.846 523.239 575.387 430.527 557.828 382.085Z" fill="#2A46EA"/>
<path d="M259.647 269.889L273.143 293.742H304.923C303.182 282.081 310.293 270.625 314.066 266.355L304.923 248.687L297.087 252.662L280.108 236.76C272.795 236.76 263.42 258.846 259.647 269.889Z" fill="#FF9F9D"/>
<path d="M515.927 358.647C511.673 366.74 516.482 378.646 520.11 388.217L555.928 382.524C566.067 358.647 551.429 351.485 542.521 343.161C533.678 326.677 517.432 343.996 515.927 358.647Z" fill="#FF9F9D"/>
<path d="M466.404 326.871C458.393 314.149 440.138 315.386 432.011 317.595C432.011 324.81 432.272 338.974 433.317 337.914C434.362 336.854 442.46 340.122 446.378 341.889L466.404 326.871Z" fill="#FD002E"/>
<path d="M437.671 310.527C435.93 302.399 440.138 285.644 442.46 278.282C450.819 284.289 473.805 277.987 483.383 275.19C479.9 302.576 469.161 314.503 462.921 316.269C455.23 317.742 439.412 318.655 437.671 310.527Z" fill="#FF9F9D"/>
<path d="M476.417 336.589C507.414 307.258 490.783 288.736 478.594 283.141C482.076 305.757 464.662 314.65 455.52 316.27C462.834 317.33 472.499 330.257 476.417 336.589Z" fill="#0B1C32"/>
<path d="M412.42 326.87C410.331 287.646 433.317 281.079 445.072 282.699C435.668 303.194 438.542 312.735 441.154 314.944C433.84 312.47 418.951 321.864 412.42 326.87Z" fill="#0B1C32"/>
<path d="M289.652 292.417H272.673L275.285 415.656C280.161 463.361 304.565 462.622 314.504 453.099C308.918 453.333 295.746 347.926 289.652 292.417Z" fill="#2A47EA"/>
<path d="M304.889 292.809H285.298C293.309 414.37 306.631 451.533 312.29 454.919L353.213 420.024L365.838 370.11C355.042 388.839 335.509 404.122 326.657 409.423L304.889 292.809Z" fill="#2A46EA" fill-opacity="0.71"/>
<path d="M422.913 262.443C413.771 244.332 441.633 170.566 463.401 165.265C541.067 163.145 530.299 215.326 512.595 241.682C549.6 237.265 531.751 275.252 520.867 271.719C512.16 268.892 502.437 270.541 498.664 271.719C445.029 293.981 428.283 273.08 422.913 262.443Z" fill="#FF9F9D"/>
<path d="M461.742 132.339C432.138 107.603 434.025 160.021 434.315 187.113C442.586 179.162 453.133 164.059 487.428 169.444C523.997 175.186 521.82 197.272 513.113 211.407C525.303 221.655 514.419 235.996 507.454 242.769C518.337 240.56 520.239 246.744 531.398 246.744C538.799 246.744 553.165 216.413 556.213 205.223C562.83 154.691 545.91 153.248 536.622 158.843C486.557 96.1191 455.357 113.346 461.742 132.339Z" fill="#002877"/>
<path d="M456.372 197.999C454.802 204.917 446.628 209.225 437.796 207.161C428.964 205.097 423.47 197.596 425.04 190.679C426.61 183.762 434.784 179.454 443.616 181.517C452.448 183.581 457.942 191.082 456.372 197.999Z" stroke="#F8CD02" stroke-width="2"/>
<path d="M502.712 212.167C501.142 219.084 492.968 223.392 484.136 221.328C475.303 219.265 469.81 211.763 471.38 204.846C472.949 197.929 481.123 193.621 489.956 195.685C498.788 197.748 504.282 205.25 502.712 212.167Z" stroke="#F8CD02" stroke-width="2"/>
<path d="M500.361 218.65L514.293 236.76" stroke="#F8CD02" stroke-width="2"/>
<path d="M436.8 231.46C440.428 233.227 456.478 237.467 469.016 238.527C458.277 252.073 433.753 265.472 436.8 231.46Z" fill="white" stroke="white"/>
<path d="M442.024 344.098C432.592 406.674 414.858 534.213 419.386 543.754C423.914 553.295 421.272 549.202 419.386 545.962" stroke="#FD002E" stroke-width="3"/>
<path d="M475.13 210.031C383.778 176.168 407.26 201.106 430.42 217.808C457.272 211.12 493.04 225.457 506.444 234.129C506.352 229.031 484.781 216.384 475.13 210.031Z" fill="url(#paint2_linear)" stroke="#6493EB"/>
<path d="M503.698 233.028C523.395 240.853 525.68 213.597 524.806 200.808C518.814 224.253 499.497 222.854 490.054 219.853L503.698 233.028Z" fill="#162CE9" stroke="#162CE9"/>
<path d="M447.888 162.765C436.297 165.029 415.46 180.711 410.236 188.394C426.276 185.193 466.527 198.365 483.397 204.502C492.771 214.932 504.658 216.078 509.671 218.312C515.412 216.598 526.435 211.679 527.699 196.496C529.278 177.518 462.376 159.934 447.888 162.765Z" fill="url(#paint3_linear)"/>
<path d="M477.865 212.531C420.226 187.827 410.855 193.416 412.338 200.005C406.371 196.577 408.52 188.967 412.338 185.742C476.343 196.126 489.38 202.915 488.006 206.429C511.134 227.558 523.646 213.839 527 202.379C519.238 239.992 491.649 225.391 477.865 212.531Z" fill="url(#paint4_linear)"/>
<path d="M524.806 260.932C521.1 268.695 512.625 273.396 508.851 274.776L506.075 279.807C522.541 282.465 533.421 259.953 536.802 248.364L529.821 246.601C523.636 248.374 523.9 256.894 524.806 260.932Z" fill="url(#paint5_radial)"/>
<path d="M527.55 212.712L525.765 197.601C540.854 215.336 535.493 237.195 530.927 245.907L529 244.813C535.305 229.717 530.661 217.122 527.55 212.712Z" fill="url(#paint6_linear)"/>
<path d="M530.552 247.897C541.967 223.016 531.756 202.033 525.223 194.651L525.256 185.418C545.547 208.927 541.408 237.178 536.802 248.364L530.552 247.897Z" fill="url(#paint7_linear)"/>
<rect width="25.2828" height="7.94095" transform="matrix(0.954055 0.299633 -0.291798 0.95648 460.014 169.619)" fill="url(#paint8_linear)"/>
<ellipse rx="53.14" ry="74.9192" transform="matrix(0.928618 -0.371036 0.450271 0.892892 83.633 391.396)" fill="url(#paint9_linear)"/>
<path d="M147.423 219.811H288.389" stroke="#002877" stroke-opacity="0.29" stroke-width="2"/>
<path d="M175.401 236.188H359.41" stroke="#002877" stroke-opacity="0.29" stroke-width="2"/>
<path d="M76.4023 169.587V105.17L391.693 108.446C390.617 126.279 388.249 163.473 387.388 169.587C386.527 175.701 179.706 172.135 76.4023 169.587Z" fill="#80ABDF" fill-opacity="0.5" stroke="#002877" stroke-opacity="0.29" stroke-width="2"/>
<path d="M100.076 154.302V119.364L129.13 124.823V154.302H100.076Z" stroke="#002877" stroke-opacity="0.29" stroke-width="2"/>
<path d="M160.336 142.292H364.791" stroke="#002877" stroke-opacity="0.29" stroke-width="2"/>
<path d="M79.6304 265.667V196.883H392.768L386.312 265.667H79.6304Z" fill="#80ABDF" fill-opacity="0.5" stroke="#002877" stroke-opacity="0.29" stroke-width="2"/>
<ellipse cx="294.823" cy="29.1533" rx="68.9775" ry="29.1533" fill="url(#paint10_linear)"/>
<ellipse rx="3.05133" ry="1.32351" transform="matrix(0.95459 -0.297924 0.290125 0.956989 312.104 117.022)" fill="white"/>
<ellipse rx="3.05133" ry="1.32351" transform="matrix(0.95459 -0.297924 0.290125 0.956989 214.586 120.556)" fill="white"/>
<ellipse rx="3.05133" ry="1.32351" transform="matrix(0.95459 -0.297924 0.290125 0.956989 372.182 184.163)" fill="white"/>
<ellipse rx="3.05133" ry="1.32351" transform="matrix(0.95459 -0.297924 0.290125 0.956989 398.303 273.39)" fill="white"/>
<ellipse rx="3.05133" ry="1.32351" transform="matrix(0.95459 -0.297924 0.290125 0.956989 671.703 291.942)" fill="white"/>
<ellipse rx="3.05133" ry="1.32351" transform="matrix(0.95459 -0.297924 0.290125 0.956989 671.703 170.028)" fill="white"/>
<ellipse rx="3.05133" ry="1.32351" transform="matrix(0.95459 -0.297924 0.290125 0.956989 254.638 366.151)" fill="white"/>
<ellipse rx="3.05133" ry="1.32351" transform="matrix(0.95459 -0.297924 0.290125 0.956989 170.18 361.733)" fill="white"/>
<ellipse rx="3.05133" ry="1.32351" transform="matrix(0.95459 -0.297924 0.290125 0.956989 131.869 350.249)" fill="white"/>
<ellipse rx="3.05133" ry="1.32351" transform="matrix(0.95459 -0.297924 0.290125 0.956989 612.496 226.568)" fill="white"/>
<ellipse rx="3.05133" ry="1.32351" transform="matrix(0.95459 -0.297924 0.290125 0.956989 291.207 487.181)" fill="white"/>
<ellipse rx="3.05133" ry="1.32351" transform="matrix(0.95459 -0.297924 0.290125 0.956989 611.625 338.764)" fill="white"/>
<ellipse rx="3.05133" ry="1.32351" transform="matrix(0.95459 -0.297924 0.290125 0.956989 651.678 440.359)" fill="white"/>
<ellipse rx="3.05133" ry="1.32351" transform="matrix(0.95459 -0.297924 0.290125 0.956989 528.909 123.206)" fill="white"/>
<defs>
<linearGradient id="paint0_linear" x1="353.709" y1="52.1225" x2="353.709" y2="584.833" gradientUnits="userSpaceOnUse">
<stop stop-color="#ACD9F2"/>
<stop offset="1" stop-color="#5682EB"/>
</linearGradient>
<linearGradient id="paint1_linear" x1="431.794" y1="298.601" x2="431.794" y2="565.301" gradientUnits="userSpaceOnUse">
<stop stop-color="#6493EB"/>
<stop offset="1" stop-color="#162CE9"/>
</linearGradient>
<linearGradient id="paint2_linear" x1="468.147" y1="206.019" x2="453.691" y2="231.179" gradientUnits="userSpaceOnUse">
<stop stop-color="#003BD5"/>
<stop offset="1" stop-color="#0080D2"/>
</linearGradient>
<linearGradient id="paint3_linear" x1="498.635" y1="171.538" x2="469.289" y2="222.613" gradientUnits="userSpaceOnUse">
<stop stop-color="#634BCC"/>
<stop offset="1" stop-color="#3142C0"/>
</linearGradient>
<linearGradient id="paint4_linear" x1="491.134" y1="181.772" x2="463.701" y2="229.517" gradientUnits="userSpaceOnUse">
<stop stop-color="#FAFEFE"/>
<stop offset="0.427183" stop-color="#51BFE0"/>
<stop offset="1" stop-color="#05D1CB"/>
</linearGradient>
<radialGradient id="paint5_radial" cx="0" cy="0" r="1" gradientUnits="userSpaceOnUse" gradientTransform="translate(522.145 264.487) rotate(118.89) scale(21.2601 6.66897)">
<stop stop-color="#0061D6"/>
<stop offset="1" stop-color="#0061D6"/>
</radialGradient>
<linearGradient id="paint6_linear" x1="537.877" y1="204.482" x2="518.39" y2="238.786" gradientUnits="userSpaceOnUse">
<stop stop-color="#0028D5"/>
<stop offset="1" stop-color="#0076D4"/>
</linearGradient>
<linearGradient id="paint7_linear" x1="542.873" y1="195.426" x2="517.333" y2="240.388" gradientUnits="userSpaceOnUse">
<stop stop-color="#00AAD0"/>
<stop offset="1" stop-color="#DAF2F8"/>
</linearGradient>
<linearGradient id="paint8_linear" x1="12.6414" y1="0" x2="12.6414" y2="7.94095" gradientUnits="userSpaceOnUse">
<stop stop-color="#6DC4E6"/>
<stop offset="1" stop-color="#0073D2"/>
</linearGradient>
<linearGradient id="paint9_linear" x1="53.14" y1="0" x2="53.14" y2="149.838" gradientUnits="userSpaceOnUse">
<stop stop-color="#4C79EA"/>
<stop offset="1" stop-color="#79A1EE"/>
</linearGradient>
<linearGradient id="paint10_linear" x1="237.9" y1="29.1533" x2="308.666" y2="80.6344" gradientUnits="userSpaceOnUse">
<stop stop-color="#C5F8F2"/>
<stop offset="1" stop-color="#B6E6F2"/>
</linearGradient>
</defs>
</svg>
