<svg width="209" height="101" viewBox="0 0 209 101" fill="none" xmlns="http://www.w3.org/2000/svg">
<path d="M93.8575 9.86527L9.80029 6.52661L6.48331 91.1332L90.5406 94.4719L93.8575 9.86527Z" fill="#3864B6"/>
<path d="M100.329 18.3258L18.1987 0.0107422L0.00260068 82.6783L82.1333 100.993L100.329 18.3258Z" fill="#6493EB"/>
<path d="M36.7567 58.0744C35.8287 58.0744 35.1025 58.0744 34.6587 58.0338L32.3992 65.6687C31.5519 65.8718 30.3818 65.9936 28.889 65.9936C27.1944 65.9936 25.8629 65.7906 24.8139 65.4251L24.5718 65.019L36.1112 29.606C37.483 29.403 39.0565 29.2811 40.8722 29.2811C42.9299 29.2811 44.5841 29.403 45.7946 29.6466L57.1322 65.1002C55.9218 65.75 54.5096 66.1155 52.9764 66.1155C51.1608 66.1155 49.8697 65.7906 49.1434 65.1814C48.4171 64.5316 47.7716 63.3539 47.2471 61.5264L46.2384 58.0338C45.7946 58.0744 45.1087 58.0744 44.1807 58.0744H36.7567ZM36.5953 51.4142L38.6934 51.3736H42.5264C42.6878 51.3736 43.0106 51.3736 43.4544 51.4142C43.8982 51.4142 44.221 51.4548 44.4227 51.4548L43.5351 48.1653C42.6878 45.2007 41.7195 41.5863 40.6704 37.2815H40.3476C40.0652 38.7841 39.2179 42.1549 37.8461 47.3531L36.5953 51.4142Z" fill="white"/>
<path d="M61.6108 65.6277V29.565C62.7002 29.3619 64.1124 29.2401 65.807 29.2401C67.5016 29.2401 68.9541 29.3619 70.0435 29.565V65.6277C68.9137 65.8308 67.5016 65.9526 65.807 65.9526C64.1124 65.912 62.7002 65.8308 61.6108 65.6277Z" fill="white"/>
<path d="M112.61 53.6879H109.503V62.1351C108.656 62.2975 107.647 62.3787 106.396 62.3787C105.105 62.3787 104.097 62.2975 103.29 62.1351V35.4129L103.572 35.1286C105.831 35.088 107.728 35.0474 109.221 35.0068C110.713 34.9662 111.884 34.9662 112.65 34.9662C114.103 34.9662 115.394 35.1692 116.604 35.5754C117.774 35.9815 118.783 36.55 119.63 37.3622C120.478 38.1339 121.123 39.1491 121.567 40.2862C122.011 41.464 122.253 42.8041 122.253 44.3068C122.253 45.85 122.011 47.1901 121.527 48.3273C121.042 49.505 120.397 50.4797 119.55 51.2513C118.702 52.0229 117.694 52.632 116.524 53.0382C115.313 53.4849 114.022 53.6879 112.61 53.6879ZM109.503 39.7583V48.9364C110.229 48.8958 110.835 48.8958 111.238 48.8958C111.682 48.8958 111.964 48.8958 112.085 48.8958C112.812 48.8958 113.376 48.774 113.861 48.5303C114.345 48.2867 114.708 47.9618 114.99 47.5556C115.273 47.1495 115.474 46.6622 115.636 46.1343C115.757 45.5657 115.838 44.9971 115.838 44.388C115.838 43.8194 115.757 43.2509 115.636 42.6823C115.515 42.1138 115.313 41.6264 115.031 41.2203C114.748 40.8142 114.385 40.4487 113.941 40.205C113.497 39.9614 112.973 39.8395 112.368 39.8395C111.763 39.8395 111.238 39.8395 110.754 39.8395C110.31 39.7989 109.866 39.7989 109.503 39.7583Z" fill="#6493EB"/>
<path d="M132.541 54.1753L132.501 57.018V57.0587C133.712 57.018 134.68 56.9774 135.406 56.9774H144.444C144.444 57.9521 144.404 58.6831 144.323 59.211C144 61.2416 142.669 62.2569 140.329 62.2569H129.919C128.789 62.2569 127.901 61.932 127.256 61.2822C126.61 60.6324 126.288 59.739 126.288 58.6019V35.4941L126.57 35.2098H143.435C143.597 35.9815 143.677 36.7937 143.677 37.6871C143.677 38.5806 143.476 39.5146 143.113 40.4893H132.461L132.501 43.3321V46.0936C133.187 46.053 134.075 46.053 135.164 46.053H141.135C141.378 46.784 141.499 47.6369 141.499 48.5709C141.499 49.505 141.378 50.3984 141.135 51.17H132.541V54.1753V54.1753Z" fill="#6493EB"/>
<path d="M166.07 60.3888C165.223 61.0792 164.133 61.5665 162.762 61.8914C161.39 62.2163 159.897 62.3787 158.243 62.3787C157.436 62.3787 156.266 62.3787 154.732 62.3381C153.199 62.2975 151.303 62.2569 149.003 62.2163L148.721 61.932V35.4129L149.003 35.1286C150.536 35.088 152.07 35.0474 153.724 35.0068C155.338 34.9662 157.073 34.9662 158.888 34.9662C161.107 34.9662 162.963 35.3317 164.456 36.0221C165.949 36.7125 167.119 37.6871 168.007 38.9461C168.894 40.1644 169.54 41.6264 169.903 43.2915C170.266 44.9565 170.468 46.7434 170.468 48.6522C170.468 51.2919 170.186 53.5661 169.58 55.4748C168.975 57.4242 167.805 59.0486 166.07 60.3888ZM158.888 57.4242C162.318 57.4242 164.053 54.5002 164.053 48.6928C164.053 42.8448 162.318 39.9208 158.888 39.9208C158.041 39.9208 157.315 39.9208 156.669 39.9208C156.024 39.9208 155.459 39.9207 155.015 39.8801V57.5054C155.499 57.4648 156.024 57.4648 156.669 57.4648C157.315 57.4242 158.041 57.4242 158.888 57.4242Z" fill="#6493EB"/>
<path d="M174.987 62.1351V35.2099C175.794 35.0474 176.843 34.9662 178.134 34.9662C179.426 34.9662 180.475 35.0474 181.322 35.2099V62.1351C180.475 62.2975 179.426 62.3787 178.134 62.3787C176.843 62.3381 175.794 62.2569 174.987 62.1351Z" fill="#6493EB"/>
<path d="M193.789 56.4901C193.103 56.4901 192.578 56.4901 192.215 56.4495L190.521 62.1757C189.875 62.3381 189.028 62.4193 187.898 62.4193C186.647 62.4193 185.639 62.2569 184.832 61.9726L184.63 61.6477L193.224 35.2099C194.233 35.0474 195.443 34.9662 196.774 34.9662C198.308 34.9662 199.558 35.0474 200.446 35.2505L208.919 61.729C207.991 62.2163 206.982 62.46 205.812 62.46C204.44 62.46 203.512 62.2163 202.948 61.7696C202.383 61.2822 201.939 60.3888 201.535 59.0486L200.809 56.4495C200.486 56.4901 199.962 56.4901 199.276 56.4901H193.789V56.4901ZM193.708 51.5355L195.282 51.4949H198.146C198.267 51.4949 198.509 51.4949 198.832 51.4949C199.155 51.4949 199.397 51.4949 199.558 51.4949L198.913 49.0583C198.267 46.8653 197.581 44.1443 196.774 40.936H196.532C196.331 42.0731 195.685 44.591 194.636 48.4491L193.708 51.5355Z" fill="#6493EB"/>
</svg>
