<svg width="32" height="21" viewBox="0 0 32 21" fill="none" xmlns="http://www.w3.org/2000/svg">
<path d="M26.2033 17.3735H5.79711C5.48534 17.3735 5.19408 17.2194 5.01855 16.9619C2.32617 13.0136 2.11963 5.41869 2.104 4.29126C2.10303 4.24707 2.10254 4.20239 2.10254 4.15796C2.10254 3.63818 2.52344 3.21655 3.04321 3.21558H3.04516C3.56396 3.21558 3.98559 3.63525 3.98754 4.15429C3.98754 4.16064 3.98779 4.21631 3.98998 4.31494C4.07299 6.99633 6.28026 9.15184 8.98143 9.15184C11.7351 9.15184 13.9753 6.91161 13.9753 4.15796C13.9753 3.63745 14.3974 3.21558 14.9177 3.21558H17.0825C17.603 3.21558 18.0249 3.63745 18.0249 4.15796C18.0249 6.91161 20.2653 9.15184 23.019 9.15184C25.7226 9.15184 27.9313 6.99242 28.0107 4.30761C28.0124 4.21338 28.0129 4.16064 28.0129 4.15454C28.0148 3.63525 28.4362 3.21558 28.9552 3.21558H28.957C29.4767 3.21655 29.8976 3.63818 29.8976 4.15796C29.8976 4.20263 29.8971 4.24707 29.8964 4.2915C29.8805 5.41869 29.674 13.0139 26.9819 16.9621C26.8063 17.2194 26.5148 17.3735 26.2033 17.3735Z" fill="#FFF780"/>
<path d="M28.9565 3.21558C28.956 3.21558 28.9555 3.21558 28.9548 3.21558C28.436 3.21558 28.0144 3.63525 28.0124 4.15429C28.0124 4.16064 28.0122 4.21338 28.0102 4.30761C27.9309 6.99218 25.7221 9.15184 23.0185 9.15184C20.2649 9.15184 18.0247 6.91161 18.0247 4.15796C18.0247 3.63745 17.6025 3.21558 17.0823 3.21558H16V17.3733H26.2029C26.5146 17.3733 26.8059 17.2192 26.9814 16.9619C29.6738 13.0136 29.8803 5.41845 29.896 4.29126C29.8969 4.24707 29.8974 4.20239 29.8974 4.15796C29.8972 3.63818 29.4763 3.21655 28.9565 3.21558Z" fill="#FFC02E"/>
<path d="M16 0C14.321 0 12.9551 1.36596 12.9551 3.04491C12.9551 4.72386 14.321 6.08958 16 6.08958C17.6789 6.08958 19.0449 4.72386 19.0449 3.04491C19.0449 1.36596 17.6789 0 16 0Z" fill="#FFC02E"/>
<path d="M16 0V6.08983C17.679 6.08958 19.0447 4.72386 19.0447 3.04491C19.0447 1.36596 17.6787 0.00024414 16 0Z" fill="#FFA73B"/>
<path d="M3.04491 2.34985C1.36596 2.34985 0 3.71582 0 5.39477C0 7.07372 1.36596 8.43968 3.04491 8.43968C4.72386 8.43968 6.08958 7.07372 6.08958 5.39477C6.08958 3.71582 4.72386 2.34985 3.04491 2.34985Z" fill="#FFC02E"/>
<path d="M28.9548 2.34985C27.2759 2.34985 25.9102 3.71582 25.9102 5.39477C25.9102 7.07347 27.2759 8.43944 28.9548 8.43944C30.6338 8.43944 31.9997 7.07347 31.9997 5.39477C31.9997 3.71582 30.6338 2.34985 28.9548 2.34985Z" fill="#FFA73B"/>
<path d="M26.2031 20.4651H5.79687C5.27637 20.4651 4.85449 20.0432 4.85449 19.5227V16.7124H27.1454V19.5227C27.1454 20.0432 26.7236 20.4651 26.2031 20.4651Z" fill="#FFC02E"/>
<path d="M16 20.4651H26.2029C26.7234 20.4651 27.1452 20.0432 27.1452 19.5227V16.7124H16V20.4651Z" fill="#FFA73B"/>
</svg>
