<svg width="34" height="33" viewBox="0 0 34 33" fill="none" xmlns="http://www.w3.org/2000/svg">
<g clip-path="url(#clip0)">
<path d="M7.16595 20.8743H1.14453V32.3544H7.16595V20.8743Z" fill="#FF9155"/>
<path d="M16.9991 13.7287C16.2872 13.7287 15.7101 13.1517 15.7101 12.4398V9.6685C15.7101 8.95661 16.2872 8.37956 16.9991 8.37956C18.4205 8.37956 19.577 7.22308 19.577 5.80162C19.577 4.38017 18.4205 3.22369 16.9991 3.22369C15.5776 3.22369 14.4211 4.38017 14.4211 5.80162C14.4211 6.51351 13.8441 7.09056 13.1322 7.09056C12.4203 7.09056 11.8433 6.51351 11.8433 5.80162C11.8433 2.95866 14.1562 0.645752 16.9991 0.645752C19.8421 0.645752 22.155 2.95866 22.155 5.80162C22.155 8.19967 20.5094 10.2206 18.2881 10.7944V12.4398C18.288 13.1517 17.711 13.7287 16.9991 13.7287Z" fill="#4BB9F5"/>
<path d="M16.999 19.0863C16.6599 19.0863 16.3274 18.9484 16.0876 18.7086C15.8472 18.4688 15.71 18.1363 15.71 17.7973C15.71 17.4576 15.8472 17.1258 16.0876 16.886C16.3274 16.6456 16.6599 16.5083 16.999 16.5083C17.338 16.5083 17.6705 16.6456 17.9103 16.886C18.15 17.1258 18.288 17.4583 18.288 17.7973C18.288 18.1363 18.15 18.4688 17.9103 18.7086C17.6705 18.9484 17.338 19.0863 16.999 19.0863Z" fill="#4BB9F5"/>
<path d="M15.6036 21.2219L22.0945 22.8693C22.9045 23.0749 23.4421 23.842 23.3591 24.6735C23.2729 25.5366 22.5466 26.1939 21.6792 26.1939H17.1492L18.6114 26.1985H21.8076C22.7071 26.1985 23.5732 25.8576 24.2314 25.2446L29.7709 20.0855C30.4183 19.4826 31.4037 19.4276 32.1142 19.9547C33.0352 20.6379 33.1104 21.9893 32.2711 22.7706L24.6401 29.8747C23.9962 30.4741 23.1492 30.8074 22.2695 30.8074H7.16602V23.0736L12.4958 21.3277C13.5007 20.9984 14.5786 20.9617 15.6036 21.2219Z" fill="#FFCDAC"/>
<path d="M33.4961 21.2903C33.455 20.5528 33.0912 19.8774 32.4981 19.4373C31.5383 18.7251 30.2064 18.7993 29.3316 19.614L24.0104 24.5697C24.0428 23.4794 23.3262 22.5171 22.2528 22.2448L15.7541 20.5953C14.6145 20.306 13.4212 20.3451 12.3028 20.7082L7.81022 22.1668V20.874C7.81022 20.5181 7.5216 20.2296 7.16575 20.2296H1.14447C0.788557 20.2296 0.5 20.5182 0.5 20.874V32.3543C0.5 32.7102 0.788622 32.9987 1.14447 32.9987H7.16582C7.52173 32.9987 7.81029 32.7101 7.81029 32.3543V23.522L12.7009 21.9342C13.5876 21.6462 14.5337 21.6154 15.4371 21.8446L21.9359 23.4941C22.4406 23.6222 22.7694 24.0913 22.7177 24.6096C22.6642 25.1455 22.2176 25.5497 21.6791 25.5497H17.1491C16.7932 25.5497 16.5046 25.8383 16.5046 26.1941C16.5046 26.55 16.7933 26.8386 17.1491 26.8386H18.5376C18.5618 26.8414 18.5864 26.8431 18.6114 26.8431H21.8075C22.8736 26.8431 23.8903 26.4429 24.6706 25.7164L30.2102 20.5573C30.6301 20.1662 31.2694 20.1307 31.7302 20.4725C32.015 20.6837 32.1895 21.0079 32.2093 21.3619C32.229 21.716 32.0914 22.0575 31.8319 22.2992L24.2007 29.4032C23.6744 29.8932 22.9883 30.163 22.2692 30.163H12.2818C11.9259 30.163 11.6373 30.4517 11.6373 30.8075C11.6373 31.1634 11.9259 31.452 12.2818 31.452H22.2693C23.3154 31.452 24.3133 31.0594 25.0791 30.3466L32.7102 23.2426C33.2508 22.7393 33.5372 22.0277 33.4961 21.2903ZM6.52135 31.7098H1.78894V21.5186H6.52129V31.7098H6.52135Z" fill="black"/>
<path d="M9.68125 30.1631C9.51102 30.1631 9.34544 30.232 9.22498 30.3519C9.1051 30.4718 9.03613 30.6381 9.03613 30.8076C9.03613 30.977 9.10503 31.1434 9.22498 31.2631C9.34551 31.383 9.51109 31.452 9.68125 31.452C9.85076 31.452 10.0164 31.3831 10.1369 31.2631C10.2567 31.1433 10.3257 30.977 10.3257 30.8076C10.3257 30.6381 10.2567 30.4718 10.1369 30.3519C10.0163 30.232 9.85076 30.1631 9.68125 30.1631Z" fill="black"/>
<path d="M4.1557 29.4973C3.98554 29.4973 3.81925 29.5656 3.69943 29.6862C3.57962 29.806 3.51123 29.9718 3.51123 30.1418C3.51123 30.3113 3.57962 30.4776 3.69943 30.5974C3.81996 30.7172 3.98561 30.7863 4.1557 30.7863C4.32521 30.7863 4.49085 30.7173 4.61074 30.5974C4.7312 30.4775 4.80017 30.3112 4.80017 30.1418C4.80017 29.9716 4.7312 29.806 4.61074 29.6862C4.49143 29.5663 4.32515 29.4973 4.1557 29.4973Z" fill="black"/>
<path d="M13.1316 7.73497C14.1978 7.73497 15.0651 6.86762 15.0651 5.8015C15.0651 4.73538 15.9325 3.86803 16.9986 3.86803C18.0647 3.86803 18.9321 4.73538 18.9321 5.8015C18.9321 6.86762 18.0647 7.73497 16.9986 7.73497C15.9325 7.73497 15.0651 8.60231 15.0651 9.66843V12.4397C15.0651 13.5059 15.9325 14.3732 16.9986 14.3732C18.0647 14.3732 18.9321 13.5059 18.9321 12.4397V11.2709C21.2324 10.4589 22.7989 8.27728 22.7989 5.80156C22.7989 2.60326 20.1969 0.0012207 16.9986 0.0012207C13.8003 0.0012207 11.1982 2.60326 11.1982 5.80156C11.1982 6.86762 12.0655 7.73497 13.1316 7.73497ZM16.9985 1.29016C19.4862 1.29016 21.5099 3.31399 21.5099 5.80156C21.5099 7.85923 20.1186 9.65567 18.1263 10.1703C17.8418 10.2438 17.6431 10.5005 17.6431 10.7943V12.4397C17.6431 12.7951 17.3539 13.0842 16.9986 13.0842C16.6433 13.0842 16.3541 12.7951 16.3541 12.4397V9.66843C16.3541 9.31304 16.6433 9.02397 16.9986 9.02397C18.7754 9.02397 20.221 7.57841 20.221 5.80156C20.221 4.02471 18.7754 2.57916 16.9986 2.57916C15.2217 2.57916 13.7762 4.02471 13.7762 5.80156C13.7762 6.15696 13.487 6.44603 13.1317 6.44603C12.7764 6.44603 12.4872 6.15689 12.4872 5.80156C12.4871 3.31399 14.5109 1.29016 16.9985 1.29016Z" fill="black"/>
<path d="M15.6324 16.4296C15.2721 16.789 15.0654 17.2875 15.0654 17.7972C15.0654 18.3069 15.2721 18.8054 15.6318 19.1642C15.9918 19.5242 16.49 19.7306 16.9988 19.7306C17.5077 19.7306 18.006 19.5241 18.3658 19.1642C18.7259 18.8041 18.9322 18.3059 18.9322 17.7972C18.9322 17.2884 18.7258 16.7902 18.3665 16.4308C18.0071 16.0704 17.5086 15.8638 16.9988 15.8638C16.4891 15.8637 15.9906 16.0704 15.6324 16.4296ZM17.6433 17.7972C17.6433 17.9642 17.5727 18.1345 17.4543 18.2527C17.3361 18.371 17.1657 18.4416 16.9988 18.4416C16.8319 18.4416 16.6615 18.371 16.5426 18.2521C16.4247 18.1346 16.3544 17.9644 16.3544 17.7972C16.3544 17.6273 16.4229 17.4615 16.5438 17.341C16.6614 17.2232 16.8316 17.1527 16.9988 17.1527C17.1661 17.1527 17.3362 17.2231 17.4543 17.3417C17.5727 17.4599 17.6433 17.6302 17.6433 17.7972Z" fill="black"/>
<path d="M4.15521 28.2297C4.51112 28.2297 4.79968 27.941 4.79968 27.5852V23.4926C4.79968 23.1367 4.51106 22.8481 4.15521 22.8481C3.79936 22.8481 3.51074 23.1368 3.51074 23.4926V27.5852C3.51068 27.9411 3.79923 28.2297 4.15521 28.2297Z" fill="black"/>
</g>
<defs>
<clipPath id="clip0">
<rect width="33" height="33" fill="white" transform="translate(0.5)"/>
</clipPath>
</defs>
</svg>
