<svg width="18" height="12" viewBox="0 0 18 12" fill="none" xmlns="http://www.w3.org/2000/svg">
<path d="M4.99999 0.244629L6.54489 3.37531L10 3.87732L7.49999 6.31421L8.08999 9.7552L4.99999 8.13061L1.9098 9.7552L2.50001 6.31421L0 3.87732L3.4549 3.37531L4.99999 0.244629Z" fill="#FAC917"/>
<path d="M13.0059 5.43555L13.3672 1.89062H17.0098V2.72559H14.1338L13.9189 4.66406C14.2673 4.45898 14.6628 4.35645 15.1055 4.35645C15.7533 4.35645 16.2676 4.57129 16.6484 5.00098C17.0293 5.42741 17.2197 6.00521 17.2197 6.73438C17.2197 7.4668 17.0212 8.0446 16.624 8.46777C16.2301 8.8877 15.6784 9.09766 14.9688 9.09766C14.3405 9.09766 13.8278 8.9235 13.4307 8.5752C13.0335 8.22689 12.8073 7.74512 12.752 7.12988H13.6064C13.6618 7.53678 13.8066 7.8444 14.041 8.05273C14.2754 8.25781 14.5846 8.36035 14.9688 8.36035C15.3887 8.36035 15.7174 8.21712 15.9551 7.93066C16.196 7.64421 16.3164 7.2487 16.3164 6.74414C16.3164 6.26888 16.1862 5.88802 15.9258 5.60156C15.6686 5.31185 15.3252 5.16699 14.8955 5.16699C14.5016 5.16699 14.1924 5.25326 13.9678 5.42578L13.7285 5.62109L13.0059 5.43555Z" fill="#8B8B8B"/>
</svg>
