<svg width="141" height="142" viewBox="0 0 141 142" fill="none" xmlns="http://www.w3.org/2000/svg">
<g clip-path="url(#clip0)">
<path d="M140.027 70.922C140.027 109.928 108.745 141.548 70.1564 141.548C31.5679 141.548 0.286133 109.928 0.286133 70.922C0.286133 31.9163 31.5679 0.296387 70.1564 0.296387C108.745 0.296387 140.027 31.9163 140.027 70.922Z" fill="#376ED5"/>
<path d="M130.604 70.922C130.604 104.668 103.541 132.023 70.1565 132.023C36.7717 132.023 9.7085 104.668 9.7085 70.922C9.7085 37.1764 36.7717 9.82056 70.1565 9.82056C103.541 9.82056 130.604 37.1764 130.604 70.922Z" fill="#6493EB"/>
<path d="M107.561 45.7808H39.3864C36.856 45.7808 34.8056 47.8545 34.8056 50.4123V82.8074L31.594 83.9049C31.2648 84.0493 30.9505 84.2192 30.6499 84.4052C28.715 85.6009 27.3858 87.6157 27.068 89.9228L26.1765 96.412L25.8645 98.6902C25.8405 98.8611 25.8325 99.0298 25.8325 99.1962C25.8325 99.2378 25.8348 99.2794 25.8359 99.3198C25.8417 99.4584 25.8531 99.5947 25.8725 99.7288C25.876 99.7484 25.8748 99.7692 25.8782 99.7877L25.8794 99.7773C25.9262 100.074 26.0051 100.361 26.1194 100.629C26.6669 101.924 27.9366 102.85 29.4464 102.85H67.0006C68.2075 102.85 69.2601 102.254 69.9139 101.354H107.561C110.091 101.354 112.143 99.2817 112.143 96.7239V50.4123C112.143 47.8545 110.091 45.7808 107.561 45.7808Z" fill="#376ED5"/>
<path d="M107.561 97.2139H39.3865C36.8561 97.2139 34.8057 95.1401 34.8057 92.5823V46.2719C34.8057 43.7141 36.8561 41.6404 39.3865 41.6404H107.561C110.091 41.6404 112.143 43.7141 112.143 46.2719V92.5823C112.143 95.1401 110.091 97.2139 107.561 97.2139Z" fill="#E43C90"/>
<path d="M106.584 94.4353H40.3639C38.7113 94.4353 37.3706 93.0801 37.3706 91.4096V47.4444C37.3706 45.7738 38.7113 44.4187 40.3639 44.4187H106.584C108.236 44.4187 109.577 45.7738 109.577 47.4444V91.4084C109.577 93.0801 108.236 94.4353 106.584 94.4353Z" fill="#EE5A9C"/>
<path d="M67.0006 98.7097H29.4465C27.2509 98.7097 25.5628 96.748 25.8646 94.5495L27.0681 85.7821C27.435 83.1146 29.1493 80.8341 31.594 79.7631L35.7611 78.341L37.3727 77.7922C37.3738 77.7911 37.3738 77.7911 37.3738 77.7911L40.59 76.6924L42.3078 76.1067H54.1393L58.1658 77.4815L58.5624 77.6166L64.8531 79.7631C67.2966 80.8341 69.0122 83.1146 69.3779 85.7821L69.7882 88.7616L70.2717 92.2783L70.5825 94.5495C70.8843 96.748 69.1962 98.7097 67.0006 98.7097Z" fill="#E6E7E8"/>
<path d="M27.0694 86.978C27.4352 84.3116 29.1507 82.0311 31.5943 80.959L42.308 77.3026H54.1395L64.8533 80.959C67.2969 82.03 69.0112 84.3105 69.3781 86.978L70.569 95.6472C70.6262 95.2937 70.6342 94.9252 70.5828 94.5497L69.3781 85.7823C69.0112 83.1159 67.2969 80.8343 64.8533 79.7633L54.1395 76.1057H42.308L31.5943 79.7633C29.1507 80.8343 27.4352 83.1148 27.0694 85.7823L25.8648 94.5497C25.8122 94.9252 25.8202 95.2937 25.8774 95.6472L27.0694 86.978Z" fill="white"/>
<path d="M70.4673 93.7063C70.025 95.1989 68.6569 96.3161 67.0008 96.3161H29.4467C27.7895 96.3161 26.4214 95.1989 25.9802 93.7063L25.8648 94.5497C25.5619 96.747 27.2512 98.7087 29.4467 98.7087H66.9997C69.1952 98.7087 70.8845 96.7482 70.5828 94.5497L70.4673 93.7063Z" fill="#D1D3D4"/>
<path d="M55.9236 76.8415L54.1395 74.7112L48.2237 79.5564L42.3079 74.7112L40.5238 76.8415C40.1558 77.6514 40.1638 78.5848 40.5455 79.3877L46.1093 91.0757L48.2248 95.5189L55.903 79.3866C56.2836 78.5837 56.2916 77.6502 55.9236 76.8415Z" fill="#E6E7E8"/>
<path d="M51.2408 98.7089L49.3264 82.5061H47.1206L45.2051 98.7089H51.2408Z" fill="#1CAEE4"/>
<path d="M45.4885 96.3162L45.2051 98.7087H51.2408L50.9585 96.3162H45.4885Z" fill="#009ADD"/>
<path d="M42.3066 69.032V72.9172L42.3078 74.7113L48.2235 79.5566L54.1382 74.7113L54.1393 69.032H42.3066Z" fill="#F6CA14"/>
<path d="M48.2237 79.5564L43.5023 85.6008L40.549 79.3901C40.1638 78.586 40.1547 77.6502 40.5239 76.838L42.3068 74.7112L48.2237 79.5564Z" fill="#D0D2D3"/>
<path d="M48.2236 79.5564L52.9439 85.6008L55.8972 79.3901C56.2824 78.586 56.2915 77.6502 55.9224 76.838L54.1383 74.7112L48.2236 79.5564Z" fill="#D0D2D3"/>
<path d="M50.1998 82.5277L49.0614 83.6795C48.5985 84.1474 47.8476 84.1474 47.3859 83.6795L46.2476 82.5277C45.7847 82.0598 45.7847 81.302 46.2476 80.8341L46.5356 80.543C47.4682 79.6003 48.9791 79.6003 49.9118 80.543L50.2009 80.8341C50.6627 81.302 50.6627 82.061 50.1998 82.5277Z" fill="#23C1E6"/>
<path d="M50.0674 80.7014L48.8159 81.9664C48.489 82.2969 47.9587 82.2969 47.6307 81.9664L46.3792 80.7014L46.002 81.0827C45.6751 81.4131 45.6751 81.9503 46.002 82.2807L47.6307 83.927C47.9587 84.2574 48.489 84.2574 48.8159 83.927L50.4457 82.2807C50.7725 81.9503 50.7725 81.4131 50.4457 81.0827L50.0674 80.7014Z" fill="#1CADE3"/>
<path d="M56.7017 61.4983C56.7017 66.5619 55.7953 74.9723 48.2235 74.9723C40.6505 74.9723 39.7441 66.5619 39.7441 61.4983C39.7441 56.4336 40.5328 52.3289 48.2235 52.3289C55.9142 52.3289 56.7017 56.4336 56.7017 61.4983Z" fill="#FFF235"/>
<path d="M48.2235 72.5799C41.2231 72.5799 39.919 65.3941 39.7624 60.3074C39.7487 60.6979 39.7441 61.0941 39.7441 61.4985C39.7441 66.5621 40.6505 74.9725 48.2235 74.9725C55.7953 74.9725 56.7017 66.5621 56.7017 61.4985C56.7017 61.0941 56.6971 60.6979 56.6845 60.3074C56.5268 65.3941 55.2227 72.5799 48.2235 72.5799Z" fill="#FDDD3A"/>
<path d="M41.8211 63.0153C42.0302 64.8221 41.3216 66.3898 40.2381 66.5181C39.1558 66.6475 38.1077 65.2865 37.8974 63.4797C37.6883 61.674 38.3969 60.1051 39.4804 59.9769C40.5639 59.8486 41.6108 61.2084 41.8211 63.0153Z" fill="#FFF235"/>
<path d="M54.5439 63.0153C54.3348 64.8221 55.0434 66.3898 56.1269 66.5181C57.2092 66.6475 58.2573 65.2865 58.4676 63.4797C58.6767 61.674 57.9681 60.1051 56.8846 59.9769C55.8011 59.8486 54.7531 61.2084 54.5439 63.0153Z" fill="#FFF235"/>
<path d="M40.1604 63.5188C40.0507 62.5819 40.0724 61.7062 40.1947 60.9934C40.149 60.9934 40.1021 60.9946 40.0553 61.0003C39.1958 61.102 38.6209 62.2296 38.7695 63.5188C38.9192 64.807 39.7375 65.7705 40.597 65.6688C40.6153 65.6665 40.6313 65.6607 40.6496 65.6584C40.4267 65.0484 40.253 64.3148 40.1604 63.5188Z" fill="#FDDD3A"/>
<path d="M56.2861 63.5188C56.3958 62.5819 56.3741 61.7062 56.2518 60.9934C56.2975 60.9934 56.3444 60.9946 56.3912 61.0003C57.2507 61.102 57.8256 62.2296 57.677 63.5188C57.6176 64.0341 57.4473 64.5494 57.1421 64.971C57.0153 65.1478 56.8621 65.3095 56.6838 65.4343C56.5535 65.5267 56.2941 65.6942 56.1295 65.6607C56.1443 65.551 56.1272 65.4378 56.0815 65.3373C56.0689 65.3107 56.0541 65.2841 56.0426 65.2575C55.9375 65.0115 56.0861 64.6915 56.1375 64.4465C56.2015 64.1404 56.2506 63.8296 56.2861 63.5188Z" fill="#FDDD3A"/>
<path d="M52.5164 56.1459C52.5164 56.1459 50.6934 58.9971 47.5253 59.2605C44.3571 59.524 42.1238 59.7192 41.2426 61.2985C40.3603 62.8777 41.2655 65.8526 40.5614 65.8526C39.8597 65.8526 38.2196 59.0364 40.6506 54.123C43.0816 49.2096 47.9596 49.391 50.2157 50.224C52.4718 51.0581 53.2102 52.3739 53.2102 53.7337C53.2102 55.0935 52.5164 56.1459 52.5164 56.1459Z" fill="#1CADE3"/>
<path d="M51.5943 50.9058C51.9006 51.421 52.0275 51.9755 52.0275 52.537C52.0275 53.8968 51.3326 54.9504 51.3326 54.9504C51.3326 54.9504 49.5096 57.8016 46.3414 58.065C43.1733 58.3284 40.9411 58.5237 40.0599 60.1029C39.5148 61.078 39.6508 62.5833 39.6702 63.5942C39.9319 64.9632 40.308 65.8527 40.5617 65.8527C41.2646 65.8527 40.3605 62.8779 41.2429 61.2986C42.1241 59.7194 44.3573 59.5241 47.5255 59.2607C50.6937 58.9973 52.5166 56.1461 52.5166 56.1461C52.5166 56.1461 53.2104 55.0936 53.2104 53.7339C53.2104 52.7022 52.7852 51.6948 51.5943 50.9058Z" fill="#0099DC"/>
<path d="M53.0958 52.8523C53.0958 52.8523 56.3817 52.4884 57.3909 55.298C58.7236 59.0065 56.7452 65.6736 56.1509 65.6736C55.5554 65.6736 56.3474 62.4042 55.4514 59.4801C54.5553 56.555 52.3872 56.3286 52.3872 56.3286L53.0958 52.8523Z" fill="#1CADE3"/>
<path d="M56.6343 58.2845C55.7383 55.3605 53.5701 55.1329 53.5701 55.1329L54.0319 52.8674C53.4821 52.8096 53.0958 52.8524 53.0958 52.8524L52.3872 56.3286C52.3872 56.3286 54.5553 56.555 55.4514 59.4802C56.3474 62.4042 55.5554 65.6737 56.1497 65.6737C56.3589 65.6737 56.7406 64.8465 57.088 63.6126C57.0709 62.447 57.2481 60.2854 56.6343 58.2845Z" fill="#0099DC"/>
<path d="M40.8884 54.7204C43.3182 49.807 48.195 49.9883 50.4523 50.8225C51.8615 51.3423 52.6776 52.0505 53.0925 52.8396C52.809 51.8137 51.9724 50.8721 50.2157 50.224C47.9596 49.3899 43.0816 49.2097 40.6518 54.1219C38.5591 58.3526 39.4826 63.9949 40.2289 65.4806C39.5591 63.4254 39.014 58.5074 40.8884 54.7204Z" fill="#23C1E6"/>
<path d="M57.391 55.298C56.3818 52.4884 53.0959 52.8523 53.0959 52.8523L52.9771 53.4369C53.7462 53.4161 56.1898 53.5409 57.0356 55.8953C58.1179 58.906 57.0173 63.8644 56.2469 65.6262C56.9316 65.0266 58.6585 58.8239 57.391 55.298Z" fill="#23C1E6"/>
<path d="M48.2237 79.5564L43.0943 84.7413L40.549 79.3889C40.1638 78.5848 40.1547 77.6491 40.5239 76.838L42.308 74.7112L48.2237 79.5564Z" fill="white"/>
<path d="M48.2236 79.5564L53.3531 84.7413L55.8972 79.3889C56.2824 78.5848 56.2915 77.6491 55.9224 76.838L54.1383 74.7112L48.2236 79.5564Z" fill="white"/>
<path d="M87.7318 58.2845C87.6553 58.2787 87.5764 58.2891 87.4998 58.2891C87.253 58.2891 87.0084 58.2833 86.7581 58.3006C81.5246 58.6692 77.3392 63.0384 77.1301 68.3365C77.0009 71.6025 78.3507 74.5508 80.5566 76.5586C82.0012 77.8734 82.7761 79.783 82.7761 81.747V81.8787C82.7761 82.5257 83.2287 83.0663 83.8322 83.1934H83.8025V88.3217C83.8025 89.18 84.4905 89.8755 85.3397 89.8755H86.1695V90.0326C86.1695 90.5906 86.6163 91.0435 87.1684 91.0435H87.8313C88.3833 91.0435 88.8302 90.5906 88.8302 90.0326V89.8755H89.6599C90.5091 89.8755 91.1972 89.18 91.1972 88.3217V83.1934H91.1675C91.7709 83.0663 92.2235 82.5257 92.2235 81.8787V81.6442C92.2235 79.671 93.0853 77.8214 94.5219 76.4859C96.5849 74.5693 97.8776 71.8209 97.8776 68.7651C97.8776 63.0511 93.355 58.4104 87.7318 58.2845Z" fill="#E43D91"/>
<path d="M101.92 82.9507C101.918 82.9219 101.918 82.893 101.912 82.8653C101.902 82.8063 101.884 82.7509 101.867 82.6943C101.859 82.67 101.854 82.6446 101.845 82.6203C101.823 82.5637 101.795 82.5106 101.765 82.4574C101.752 82.4343 101.743 82.4112 101.729 82.3893C101.697 82.3384 101.659 82.2922 101.621 82.246C101.605 82.2264 101.592 82.2056 101.576 82.1871C101.575 82.1871 101.575 82.1883 101.574 82.1883C101.564 82.1779 101.557 82.1652 101.547 82.1548L99.5247 80.1111C99.007 79.5889 98.1658 79.5877 97.6492 80.1111C97.6389 80.1215 97.632 80.1342 97.6217 80.1446C97.6217 80.1434 97.6206 80.1434 97.6195 80.1423C97.6035 80.1607 97.592 80.1815 97.5772 80.2C97.5372 80.2474 97.4983 80.2936 97.4663 80.3444C97.4537 80.3664 97.4434 80.3895 97.432 80.4126C97.4023 80.4657 97.3726 80.52 97.3509 80.5766C97.3429 80.5998 97.3383 80.624 97.3303 80.6483C97.312 80.706 97.2937 80.7626 97.2834 80.8216C97.2789 80.8493 97.2789 80.877 97.2754 80.9047C97.2686 80.9614 97.2617 81.0168 97.2617 81.0734C97.2629 81.1058 97.2686 81.1393 97.2709 81.1716C97.2754 81.2224 97.2777 81.2744 97.288 81.3241C97.2949 81.3634 97.3097 81.4015 97.3212 81.4396C97.3349 81.4835 97.3429 81.5263 97.3612 81.569C97.3806 81.6164 97.4069 81.6603 97.432 81.7054C97.448 81.7365 97.4617 81.7689 97.4812 81.7978C97.5292 81.8717 97.584 81.941 97.6492 82.0057L99.671 84.0506C99.9293 84.3117 100.269 84.4422 100.608 84.4422C100.948 84.4422 101.287 84.3117 101.547 84.0506C101.609 83.9859 101.665 83.9154 101.713 83.8415C101.732 83.8137 101.744 83.7837 101.76 83.7548C101.785 83.7074 101.815 83.6612 101.835 83.6127C101.851 83.5723 101.86 83.5307 101.872 83.4891C101.884 83.4487 101.9 83.4094 101.907 83.3678C101.917 83.3193 101.919 83.2684 101.923 83.2188C101.926 83.1853 101.932 83.1506 101.932 83.1171C101.934 83.0605 101.927 83.005 101.92 82.9507Z" fill="#E43D91"/>
<path d="M77.7223 80.9035C77.72 80.8758 77.72 80.8481 77.7143 80.8203C77.704 80.7614 77.6858 80.7048 77.6686 80.6494C77.6606 80.6251 77.656 80.5997 77.6469 80.5754C77.6252 80.5188 77.5966 80.4657 77.5669 80.4114C77.5555 80.3894 77.5452 80.3652 77.5315 80.3432C77.4995 80.2935 77.4617 80.2462 77.4229 80.2C77.4069 80.1815 77.3955 80.1595 77.3783 80.141C77.3772 80.1422 77.3772 80.1422 77.376 80.1433C77.3669 80.133 77.36 80.1202 77.3486 80.1098C76.832 79.5865 75.9908 79.5877 75.4742 80.1098L73.4512 82.1535C73.441 82.1639 73.4352 82.1766 73.425 82.187C73.4238 82.187 73.4238 82.1859 73.4227 82.1859C73.4055 82.2044 73.3952 82.2252 73.3792 82.2425C73.3404 82.2899 73.3015 82.3361 73.2695 82.3869C73.2558 82.4089 73.2467 82.432 73.2341 82.4551C73.2055 82.5082 73.1758 82.5625 73.1541 82.6191C73.1461 82.6422 73.1415 82.6676 73.1335 82.6907C73.1152 82.7485 73.0969 82.8051 73.0867 82.864C73.0821 82.8918 73.0821 82.9195 73.0787 82.9472C73.0718 83.0027 73.0649 83.0593 73.0649 83.1147C73.0649 83.1482 73.0718 83.1806 73.0741 83.2141C73.0787 83.2649 73.0809 83.3157 73.0901 83.3666C73.0992 83.407 73.1129 83.4451 73.1255 83.4844C73.1369 83.5272 73.1472 83.5688 73.1632 83.6103C73.1827 83.6589 73.2101 83.7039 73.2352 83.7501C73.2524 83.7802 73.265 83.8114 73.2832 83.8402C73.3312 83.9142 73.3872 83.9835 73.4512 84.0482C73.7095 84.3093 74.049 84.441 74.3884 84.441C74.7279 84.441 75.0673 84.3093 75.3256 84.0482L77.3486 82.0045C77.4126 81.9398 77.4675 81.8693 77.5166 81.7966C77.536 81.7665 77.5486 81.7342 77.5658 81.703C77.5898 81.6579 77.6172 81.614 77.6366 81.5667C77.6538 81.5251 77.6629 81.4835 77.6743 81.4407C77.6869 81.4014 77.7018 81.3622 77.7098 81.3217C77.7189 81.2721 77.7212 81.2212 77.7258 81.1704C77.7292 81.1369 77.7349 81.1045 77.7349 81.071C77.736 81.0156 77.7292 80.9601 77.7223 80.9035Z" fill="#E43D91"/>
<path d="M73.234 55.9541C73.2055 56.0072 73.1769 56.0604 73.1552 56.1158C73.146 56.1401 73.1415 56.1643 73.1335 56.1886C73.1152 56.2464 73.098 56.303 73.0866 56.3607C73.082 56.3885 73.082 56.4174 73.0797 56.4462C73.0729 56.5017 73.0649 56.5571 73.066 56.6138C73.066 56.6473 73.0729 56.6808 73.0752 56.7143C73.0797 56.7651 73.082 56.8159 73.0912 56.8656C73.0992 56.9049 73.114 56.9442 73.1255 56.9834C73.138 57.025 73.1472 57.0689 73.1632 57.1094C73.1837 57.159 73.2112 57.2053 73.2386 57.2515C73.2535 57.2815 73.266 57.3115 73.2832 57.3393C73.3312 57.412 73.3883 57.4825 73.4512 57.5472L75.4742 59.5909C75.7325 59.8532 76.0719 59.9825 76.4114 59.9825C76.7508 59.9825 77.0902 59.852 77.3485 59.5909C77.5988 59.3379 77.7371 59.0017 77.7371 58.6436C77.7371 58.5558 77.7291 58.4703 77.712 58.3871C77.7051 58.3455 77.6891 58.3074 77.6777 58.267C77.6663 58.2265 77.6571 58.1838 77.6411 58.1457C77.6217 58.096 77.5943 58.0509 77.5691 58.0047C77.5543 57.977 77.5428 57.9481 77.5257 57.9215C77.496 57.8753 77.4606 57.8326 77.424 57.7898C77.408 57.769 77.3954 57.7482 77.3771 57.7286C77.376 57.7286 77.376 57.7298 77.376 57.7298C77.3657 57.7194 77.3588 57.7066 77.3485 57.6962L75.3256 55.6526C75.0753 55.3984 74.7427 55.2598 74.3884 55.2598C74.0341 55.2598 73.7015 55.3984 73.4512 55.6526C73.4409 55.663 73.434 55.6745 73.4238 55.6861C73.4226 55.6849 73.4226 55.6849 73.4215 55.6838C73.4043 55.7022 73.394 55.723 73.378 55.7415C73.3392 55.7889 73.3003 55.8351 73.2683 55.8859C73.2558 55.9067 73.2466 55.931 73.234 55.9541Z" fill="#E43D91"/>
<path d="M73.1198 69.5876C73.1107 69.5472 73.097 69.5102 73.0844 69.471C73.0718 69.4282 73.0627 69.3843 73.0455 69.3427C73.0261 69.2954 72.9998 69.2503 72.9747 69.2052C72.9598 69.1775 72.9472 69.1486 72.9301 69.1221C72.9004 69.0759 72.8649 69.0354 72.8307 68.9938C72.8147 68.9742 72.8021 68.9534 72.7861 68.9349C72.7849 68.9361 72.7849 68.9361 72.7838 68.9361C72.5415 68.675 72.2009 68.5098 71.8192 68.5098H68.9596C68.5778 68.5098 68.2373 68.6761 67.995 68.9361C67.9938 68.9361 67.9938 68.9361 67.9938 68.9349C67.9767 68.9534 67.9641 68.9753 67.9481 68.995C67.9127 69.0366 67.8784 69.0759 67.8487 69.1221C67.8315 69.1486 67.8189 69.1787 67.8041 69.2076C67.7789 69.2515 67.7527 69.2954 67.7332 69.3427C67.7161 69.3843 67.7069 69.4271 67.6944 69.471C67.6829 69.5102 67.6681 69.5472 67.6601 69.5876C67.6429 69.672 67.6338 69.7609 67.6338 69.851C67.6338 70.5893 68.2281 71.1912 68.9596 71.1912H71.8192C72.5506 71.1912 73.1461 70.5904 73.1461 69.851C73.1461 69.7598 73.1358 69.672 73.1198 69.5876Z" fill="#E43D91"/>
<path d="M107.34 69.5876C107.332 69.5472 107.317 69.5102 107.306 69.471C107.292 69.4282 107.283 69.3843 107.266 69.3427C107.246 69.2954 107.22 69.2515 107.196 69.2076C107.18 69.1787 107.168 69.1486 107.15 69.1221C107.121 69.0759 107.086 69.0354 107.051 68.9938C107.036 68.9753 107.022 68.9534 107.005 68.9349C107.005 68.9361 107.004 68.9361 107.004 68.9361C106.762 68.675 106.42 68.5098 106.04 68.5098H103.179C102.798 68.5098 102.458 68.6761 102.215 68.9361C102.214 68.9361 102.214 68.9361 102.213 68.9349C102.196 68.9534 102.183 68.9753 102.167 68.9938C102.133 69.0354 102.099 69.0759 102.069 69.1221C102.051 69.1486 102.038 69.1787 102.023 69.2076C101.998 69.2515 101.972 69.2954 101.952 69.3427C101.935 69.3843 101.926 69.4271 101.914 69.471C101.902 69.5102 101.887 69.5472 101.879 69.5876C101.862 69.672 101.853 69.7609 101.853 69.851C101.853 70.5893 102.447 71.1912 103.179 71.1912H106.04C106.77 71.1912 107.365 70.5904 107.365 69.851C107.366 69.7598 107.357 69.672 107.34 69.5876Z" fill="#E43D91"/>
<path d="M97.4288 58.0024C97.4036 58.0486 97.3773 58.0948 97.3579 58.1433C97.3419 58.1826 97.3327 58.2254 97.3202 58.267C97.3087 58.3062 97.2939 58.3455 97.2859 58.3859C97.2699 58.4703 97.2607 58.5558 97.2607 58.6424C97.2607 59.0006 97.399 59.3367 97.6493 59.5897C97.9076 59.852 98.2471 59.9814 98.5865 59.9814C98.926 59.9814 99.2666 59.8508 99.5249 59.5897L101.547 57.5461C101.611 57.4814 101.667 57.412 101.715 57.3381C101.733 57.3104 101.744 57.2792 101.76 57.2503C101.786 57.2029 101.815 57.1579 101.835 57.1082C101.851 57.0678 101.86 57.025 101.872 56.9846C101.884 56.9442 101.9 56.9049 101.907 56.8644C101.917 56.8148 101.919 56.7639 101.924 56.7131C101.926 56.6784 101.933 56.6461 101.933 56.6126C101.933 56.556 101.926 56.5005 101.919 56.4451C101.917 56.4174 101.917 56.3885 101.911 56.3607C101.901 56.303 101.883 56.2464 101.864 56.1898C101.856 56.1655 101.852 56.1401 101.844 56.117C101.822 56.0604 101.794 56.0072 101.764 55.9541C101.751 55.931 101.742 55.9079 101.728 55.8859C101.696 55.8351 101.658 55.7877 101.618 55.7415C101.603 55.7219 101.591 55.7022 101.575 55.6838C101.574 55.6849 101.574 55.6849 101.573 55.6861C101.563 55.6745 101.556 55.663 101.546 55.6526C101.295 55.3984 100.963 55.2598 100.608 55.2598C100.254 55.2598 99.9215 55.3984 99.6712 55.6526L97.6482 57.6962C97.6379 57.7066 97.631 57.7194 97.6208 57.7297C97.6196 57.7297 97.6196 57.7286 97.6196 57.7286C97.6025 57.7471 97.5888 57.769 97.5728 57.7887C97.5373 57.8326 97.5008 57.8753 97.471 57.9215C97.4562 57.9469 97.4436 57.9758 97.4288 58.0024Z" fill="#E43D91"/>
<path d="M87.4991 55.3407C88.2306 55.3407 88.8261 54.74 88.8261 54.0006V51.1089C88.8261 50.3707 88.2306 49.7688 87.4991 49.7688C86.7688 49.7688 86.1733 50.3707 86.1733 51.1089V54.0006C86.1745 54.74 86.7688 55.3407 87.4991 55.3407Z" fill="#E43D91"/>
<path d="M97.878 66.9895C97.878 60.9474 92.8252 56.0999 86.7574 56.525C81.524 56.8935 77.3386 61.2628 77.1295 66.5609C77.0015 69.8269 78.3512 72.7751 80.5571 74.783C82.0017 76.0977 82.7766 78.0062 82.7766 79.9714V80.1019C82.7766 80.8447 83.3721 81.4466 84.107 81.4466H90.8925C91.6274 81.4466 92.2229 80.8447 92.2229 80.1019V79.8685C92.2229 77.8953 93.0858 76.0446 94.5224 74.7091C96.5854 72.7925 97.878 70.0452 97.878 66.9895Z" fill="#E6E7E8"/>
<path d="M93.3542 66.9895C93.3542 60.9474 90.5038 56.0999 87.0819 56.525C84.1297 56.8935 81.7684 61.2628 81.6507 66.5609C81.5787 69.8269 82.3399 72.7751 83.5834 74.783C84.3983 76.0977 84.836 78.0062 84.836 79.9714V80.1019C84.836 80.8447 85.172 81.4466 85.5869 81.4466H89.4146C89.8283 81.4466 90.1655 80.8447 90.1655 80.1019V79.8685C90.1655 77.8953 90.6512 76.0446 91.4627 74.7091C92.625 72.7925 93.3542 70.0452 93.3542 66.9895Z" fill="white"/>
<path d="M89.6591 88.0996H85.34C84.4908 88.0996 83.8027 87.4041 83.8027 86.5458V81.4175H91.1974V86.5458C91.1963 87.4041 90.5083 88.0996 89.6591 88.0996Z" fill="#FDDD3A"/>
<path d="M87.8317 89.2667H87.1688C86.6168 89.2667 86.1699 88.815 86.1699 88.257V88.0999H88.8306V88.257C88.8306 88.815 88.3838 89.2667 87.8317 89.2667Z" fill="#E7AD27"/>
<path d="M83.8027 82.8374H91.1974V83.7859H83.8027V82.8374Z" fill="#F6CA14"/>
<path d="M83.8027 85.1504H91.1974V86.1H83.8027V85.1504Z" fill="#F6CA14"/>
<path d="M88.8258 49.3333V52.2249C88.8258 52.9632 88.2304 53.5651 87.4989 53.5651C86.7686 53.5651 86.1731 52.9643 86.1731 52.2249V49.3333C86.1731 48.5951 86.7674 47.9932 87.4989 47.9932C88.2304 47.9932 88.8258 48.5939 88.8258 49.3333ZM106.041 66.7341H103.18C102.449 66.7341 101.854 67.336 101.854 68.0742C101.854 68.8136 102.448 69.4143 103.18 69.4143H106.041C106.771 69.4143 107.366 68.8136 107.366 68.0742C107.366 67.336 106.771 66.7341 106.041 66.7341ZM71.8192 66.7341H68.9596C68.2281 66.7341 67.6338 67.336 67.6338 68.0742C67.6338 68.8136 68.2281 69.4143 68.9596 69.4143H71.8192C72.5506 69.4143 73.1461 68.8136 73.1461 68.0742C73.1461 67.336 72.5506 66.7341 71.8192 66.7341ZM98.5875 58.2058C98.927 58.2058 99.2664 58.0753 99.5247 57.8142L101.548 55.7705C102.064 55.2483 102.064 54.398 101.548 53.8747C101.296 53.6217 100.964 53.483 100.609 53.483C100.256 53.483 99.9225 53.6217 99.6722 53.8747L97.6503 55.9195C97.3989 56.1725 97.2617 56.5087 97.2617 56.8669C97.2617 57.225 97.4 57.5612 97.6503 57.8142C97.9075 58.0753 98.2481 58.2058 98.5875 58.2058ZM75.4742 78.3342L73.4524 80.3779C72.9358 80.9001 72.9358 81.7504 73.4524 82.2737C73.7107 82.5348 74.0502 82.6654 74.3896 82.6654C74.729 82.6654 75.0696 82.5337 75.3268 82.2737L77.3498 80.2289C77.8664 79.7067 77.8664 78.8564 77.3498 78.3342C76.8332 77.812 75.9908 77.812 75.4742 78.3342ZM99.5247 78.3342C99.0081 77.812 98.1669 77.812 97.6503 78.3342C97.1337 78.8564 97.1337 79.7067 97.6503 80.2289L99.6722 82.2737C99.9305 82.5348 100.27 82.6654 100.609 82.6654C100.949 82.6654 101.288 82.5337 101.548 82.2726C102.064 81.7504 102.064 80.9001 101.548 80.3779L99.5247 78.3342ZM75.3268 53.8747C75.0765 53.6217 74.7439 53.4819 74.3896 53.4819C74.0353 53.4819 73.7027 53.6217 73.4524 53.8747C72.9358 54.3969 72.9358 55.2472 73.4524 55.7693L75.4742 57.8142C75.7337 58.0753 76.0731 58.2058 76.4126 58.2058C76.752 58.2058 77.0915 58.0753 77.3498 57.8142C77.6001 57.5612 77.7384 57.2238 77.7384 56.8669C77.7384 56.5087 77.6001 56.1725 77.3498 55.9184L75.3268 53.8747Z" fill="#FDDD3A"/>
<path d="M77.3502 78.3976L75.3272 80.4425C75.0689 80.7036 74.7294 80.8341 74.39 80.8341C74.0505 80.8341 73.7111 80.7036 73.4528 80.4425C73.4425 80.4321 73.4345 80.4217 73.4242 80.4101C72.9373 80.9346 72.9465 81.7618 73.4528 82.2736C73.7111 82.5347 74.0505 82.6652 74.39 82.6652C74.7294 82.6652 75.07 82.5347 75.3272 82.2736L77.3502 80.2299C77.8565 79.717 77.8656 78.891 77.3787 78.3665C77.3684 78.3769 77.3604 78.3873 77.3502 78.3976Z" fill="#E7AD27"/>
<path d="M77.3502 55.983C77.0919 56.2453 76.7524 56.3747 76.413 56.3747C76.0735 56.3747 75.7329 56.2441 75.4746 55.983L73.4528 53.9393C73.4425 53.9289 73.4345 53.9174 73.4242 53.907C72.9373 54.4315 72.9465 55.2587 73.4528 55.7704L75.4746 57.8141C75.7341 58.0764 76.0735 58.2058 76.413 58.2058C76.7524 58.2058 77.0919 58.0752 77.3502 57.8141C77.6005 57.5611 77.7388 57.2249 77.7388 56.8668C77.7388 56.5237 77.6107 56.2014 77.3787 55.9518C77.3696 55.9622 77.3604 55.9738 77.3502 55.983Z" fill="#E7AD27"/>
<path d="M72.7849 67.1582C72.5426 67.4193 72.2009 67.5833 71.8192 67.5833H68.9596C68.5778 67.5833 68.235 67.4193 67.9938 67.1582C67.7709 67.3985 67.6338 67.7197 67.6338 68.0743C67.6338 68.8137 68.2281 69.4145 68.9596 69.4145H71.8192C72.5506 69.4145 73.1461 68.8137 73.1461 68.0743C73.1461 67.7197 73.0078 67.3985 72.7849 67.1582Z" fill="#E7AD27"/>
<path d="M101.548 80.4425C101.288 80.7036 100.949 80.8341 100.61 80.8341C100.27 80.8341 99.9306 80.7036 99.6723 80.4425L97.6505 78.3988C97.6402 78.3884 97.631 78.3769 97.6219 78.3665C97.135 78.891 97.143 79.7181 97.6505 80.2299L99.6723 82.2748C99.9306 82.5359 100.27 82.6664 100.61 82.6664C100.949 82.6664 101.288 82.5347 101.548 82.2736C102.054 81.7618 102.063 80.9346 101.576 80.4101C101.566 80.4217 101.558 80.4321 101.548 80.4425Z" fill="#E7AD27"/>
<path d="M106.041 67.5833H103.18C102.799 67.5833 102.456 67.4193 102.214 67.1582C101.991 67.3985 101.854 67.7197 101.854 68.0743C101.854 68.8137 102.448 69.4145 103.18 69.4145H106.041C106.771 69.4145 107.366 68.8137 107.366 68.0743C107.366 67.7197 107.229 67.3985 107.005 67.1582C106.763 67.4193 106.421 67.5833 106.041 67.5833Z" fill="#E7AD27"/>
<path d="M98.5875 58.2058C98.927 58.2058 99.2664 58.0752 99.5247 57.8141L101.548 55.7704C102.054 55.2587 102.063 54.4315 101.576 53.907C101.566 53.9174 101.557 53.9289 101.548 53.9393L99.5247 55.983C99.2664 56.2453 98.927 56.3747 98.5875 56.3747C98.2481 56.3747 97.9086 56.2441 97.6503 55.983C97.64 55.9726 97.6309 55.9622 97.6217 55.9518C97.3897 56.2002 97.2617 56.5237 97.2617 56.8668C97.2617 57.2249 97.4 57.5611 97.6503 57.8141C97.9075 58.0752 98.2481 58.2058 98.5875 58.2058Z" fill="#E7AD27"/>
<path d="M87.4991 51.7341C86.7688 51.7341 86.1733 51.1322 86.1733 50.3928V52.2239C86.1733 52.9633 86.7677 53.5652 87.4991 53.5652C88.2306 53.5652 88.8261 52.9633 88.8261 52.2239V50.3928C88.8261 51.1322 88.2306 51.7341 87.4991 51.7341Z" fill="#E7AD27"/>
</g>
<defs>
<clipPath id="clip0">
<rect width="139.74" height="141.251" fill="white" transform="translate(0.286133 0.296387)"/>
</clipPath>
</defs>
</svg>
