<svg width="154" height="19" viewBox="0 0 154 19" fill="none" xmlns="http://www.w3.org/2000/svg">
<g clip-path="url(#clip0)">
<path d="M12 3.82715C7.41454 3.82715 3.25621 5.80797 0.187788 9.02534C-0.0625959 9.28893 -0.0625959 9.65719 0.187788 9.92078C3.25621 13.142 7.41454 15.1228 12 15.1228C16.5855 15.1228 20.7438 13.142 23.8122 9.92465C24.0626 9.66106 24.0626 9.29281 23.8122 9.02922C20.7438 5.80797 16.5855 3.82715 12 3.82715ZM12.3289 13.4521C9.28506 13.6033 6.7714 11.6225 6.96287 9.21528C7.11998 7.23059 9.15741 5.6219 11.6711 5.49786C14.7149 5.34668 17.2286 7.3275 17.0371 9.73471C16.8751 11.7155 14.8377 13.3242 12.3289 13.4521ZM12.1767 11.6147C10.537 11.6961 9.18196 10.6302 9.28997 9.33545C9.37343 8.26557 10.4732 7.40115 11.8282 7.33137C13.4679 7.24997 14.823 8.31597 14.7149 9.61067C14.6266 10.6844 13.5268 11.5488 12.1767 11.6147Z" fill="#DFDFDF"/>
</g>
<path d="M37.2298 9.8C38.5498 9.872 39.5518 10.232 40.2358 10.88C40.9318 11.516 41.2798 12.35 41.2798 13.382C41.2798 14.102 41.1058 14.744 40.7578 15.308C40.4098 15.86 39.8938 16.298 39.2098 16.622C38.5258 16.946 37.6918 17.108 36.7078 17.108C35.7958 17.108 34.9318 16.964 34.1158 16.676C33.3118 16.376 32.6638 15.98 32.1718 15.488L32.8018 14.462C33.2218 14.894 33.7798 15.248 34.4758 15.524C35.1718 15.788 35.9158 15.92 36.7078 15.92C37.7398 15.92 38.5378 15.698 39.1018 15.254C39.6658 14.798 39.9478 14.174 39.9478 13.382C39.9478 12.602 39.6658 11.99 39.1018 11.546C38.5378 11.102 37.6858 10.88 36.5458 10.88H35.6458V9.926L39.1378 5.552H32.6938V4.4H40.7938V5.318L37.2298 9.8ZM44.0779 17.09C43.8139 17.09 43.5859 16.994 43.3939 16.802C43.2139 16.61 43.1239 16.376 43.1239 16.1C43.1239 15.824 43.2139 15.596 43.3939 15.416C43.5859 15.224 43.8139 15.128 44.0779 15.128C44.3419 15.128 44.5699 15.224 44.7619 15.416C44.9539 15.596 45.0499 15.824 45.0499 16.1C45.0499 16.376 44.9539 16.61 44.7619 16.802C44.5699 16.994 44.3419 17.09 44.0779 17.09ZM50.2324 9.566C52.0564 9.566 53.3824 9.896 54.2104 10.556C55.0504 11.204 55.4704 12.116 55.4704 13.292C55.4704 14.024 55.2964 14.678 54.9484 15.254C54.6124 15.83 54.1024 16.286 53.4184 16.622C52.7344 16.946 51.8944 17.108 50.8984 17.108C49.9984 17.108 49.1404 16.964 48.3244 16.676C47.5204 16.376 46.8724 15.98 46.3804 15.488L47.0104 14.462C47.4304 14.894 47.9824 15.248 48.6664 15.524C49.3504 15.788 50.0884 15.92 50.8804 15.92C51.9244 15.92 52.7284 15.686 53.2924 15.218C53.8684 14.75 54.1564 14.126 54.1564 13.346C54.1564 12.482 53.8324 11.828 53.1844 11.384C52.5484 10.94 51.4684 10.718 49.9444 10.718H47.2624L47.9104 4.4H54.8044V5.552H49.0444L48.6124 9.566H50.2324ZM61.4717 12.248L59.2397 14.3V17H57.9617V3.644H59.2397V12.698L64.8917 7.532H66.4757L62.4257 11.402L66.8537 17H65.2877L61.4717 12.248Z" fill="#DFDFDF"/>
<path d="M125.231 9.8C126.551 9.872 127.553 10.232 128.237 10.88C128.933 11.516 129.281 12.35 129.281 13.382C129.281 14.102 129.107 14.744 128.759 15.308C128.411 15.86 127.895 16.298 127.211 16.622C126.527 16.946 125.693 17.108 124.709 17.108C123.797 17.108 122.933 16.964 122.117 16.676C121.313 16.376 120.665 15.98 120.173 15.488L120.803 14.462C121.223 14.894 121.781 15.248 122.477 15.524C123.173 15.788 123.917 15.92 124.709 15.92C125.741 15.92 126.539 15.698 127.103 15.254C127.667 14.798 127.949 14.174 127.949 13.382C127.949 12.602 127.667 11.99 127.103 11.546C126.539 11.102 125.687 10.88 124.547 10.88H123.647V9.926L127.139 5.552H120.695V4.4H128.795V5.318L125.231 9.8ZM136.129 17.108C135.157 17.108 134.287 16.85 133.519 16.334C132.763 15.818 132.169 15.08 131.737 14.12C131.317 13.148 131.107 12.008 131.107 10.7C131.107 9.392 131.317 8.258 131.737 7.298C132.169 6.326 132.763 5.582 133.519 5.066C134.287 4.55 135.157 4.292 136.129 4.292C137.101 4.292 137.965 4.55 138.721 5.066C139.489 5.582 140.089 6.326 140.521 7.298C140.953 8.258 141.169 9.392 141.169 10.7C141.169 12.008 140.953 13.148 140.521 14.12C140.089 15.08 139.489 15.818 138.721 16.334C137.965 16.85 137.101 17.108 136.129 17.108ZM136.129 15.92C136.861 15.92 137.503 15.716 138.055 15.308C138.619 14.9 139.057 14.306 139.369 13.526C139.681 12.746 139.837 11.804 139.837 10.7C139.837 9.596 139.681 8.654 139.369 7.874C139.057 7.094 138.619 6.5 138.055 6.092C137.503 5.684 136.861 5.48 136.129 5.48C135.397 5.48 134.749 5.684 134.185 6.092C133.633 6.5 133.201 7.094 132.889 7.874C132.577 8.654 132.421 9.596 132.421 10.7C132.421 11.804 132.577 12.746 132.889 13.526C133.201 14.306 133.633 14.9 134.185 15.308C134.749 15.716 135.397 15.92 136.129 15.92ZM153.735 13.688H151.215V17H149.919V13.688H142.809V12.752L149.487 4.4H150.927L144.483 12.536H149.955V9.62H151.215V12.536H153.735V13.688Z" fill="#DFDFDF"/>
<g clip-path="url(#clip1)">
<path d="M106.982 6.36432C106.94 6.25755 106.828 6.17969 106.693 6.16346L100.217 5.38805L97.3209 0.553253C97.2607 0.452381 97.1361 0.388672 97.0001 0.388672C96.8641 0.388672 96.7391 0.452381 96.6793 0.553253L93.7828 5.38834L87.3067 6.16376C87.1718 6.17998 87.0601 6.25755 87.0175 6.36462C86.9756 6.4711 87.0103 6.58849 87.108 6.66665L91.7945 10.4302L90.688 15.7446C90.6651 15.8552 90.7202 15.967 90.8301 16.033C90.9407 16.0997 91.0871 16.1082 91.2071 16.0554L97.0001 13.5466L102.792 16.0554C102.845 16.0782 102.902 16.0894 102.959 16.0894C103.033 16.0894 103.107 16.0705 103.17 16.033C103.28 15.967 103.335 15.8552 103.312 15.7446L102.206 10.4305L106.892 6.66665C106.99 6.5879 107.025 6.4708 106.982 6.36432Z" fill="#DFDFDF"/>
</g>
<defs>
<clipPath id="clip0">
<rect width="24" height="18.9496" fill="white"/>
</clipPath>
<clipPath id="clip1">
<rect width="20" height="16.4779" fill="white" transform="translate(87)"/>
</clipPath>
</defs>
</svg>
