<svg width="50" height="16" viewBox="0 0 50 16" fill="none" xmlns="http://www.w3.org/2000/svg">
<g clip-path="url(#clip0)">
<path d="M9 4.0293C5.56091 4.0293 2.44216 5.59726 0.140841 8.14406C-0.0469469 8.35271 -0.0469469 8.64421 0.140841 8.85286C2.44216 11.4027 5.56091 12.9707 9 12.9707C12.4391 12.9707 15.5578 11.4027 17.8592 8.85593C18.0469 8.64728 18.0469 8.35578 17.8592 8.14712C15.5578 5.59726 12.4391 4.0293 9 4.0293ZM9.2467 11.6482C6.96379 11.7679 5.07855 10.1999 5.22215 8.29441C5.33998 6.72337 6.86806 5.44998 8.7533 5.35179C11.0362 5.23212 12.9214 6.80009 12.7778 8.70558C12.6563 10.2735 11.1283 11.5469 9.2467 11.6482ZM9.13256 10.1938C7.90273 10.2582 6.88647 9.41438 6.96747 8.38953C7.03007 7.54264 7.85486 6.85839 8.87113 6.80315C10.101 6.73872 11.1172 7.58253 11.0362 8.60739C10.9699 9.45734 10.1451 10.1416 9.13256 10.1938Z" fill="#C4C4C4"/>
</g>
<path d="M28.6184 7.2C29.4984 7.248 30.1664 7.488 30.6224 7.92C31.0864 8.344 31.3184 8.9 31.3184 9.588C31.3184 10.068 31.2024 10.496 30.9704 10.872C30.7384 11.24 30.3944 11.532 29.9384 11.748C29.4824 11.964 28.9264 12.072 28.2704 12.072C27.6624 12.072 27.0864 11.976 26.5424 11.784C26.0064 11.584 25.5744 11.32 25.2464 10.992L25.6664 10.308C25.9464 10.596 26.3184 10.832 26.7824 11.016C27.2464 11.192 27.7424 11.28 28.2704 11.28C28.9584 11.28 29.4904 11.132 29.8664 10.836C30.2424 10.532 30.4304 10.116 30.4304 9.588C30.4304 9.068 30.2424 8.66 29.8664 8.364C29.4904 8.068 28.9224 7.92 28.1624 7.92H27.5624V7.284L29.8904 4.368H25.5944V3.6H30.9944V4.212L28.6184 7.2ZM33.1838 12.06C33.0078 12.06 32.8558 11.996 32.7278 11.868C32.6078 11.74 32.5478 11.584 32.5478 11.4C32.5478 11.216 32.6078 11.064 32.7278 10.944C32.8558 10.816 33.0078 10.752 33.1838 10.752C33.3598 10.752 33.5118 10.816 33.6398 10.944C33.7678 11.064 33.8318 11.216 33.8318 11.4C33.8318 11.584 33.7678 11.74 33.6398 11.868C33.5118 11.996 33.3598 12.06 33.1838 12.06ZM37.2868 7.044C38.5028 7.044 39.3868 7.264 39.9388 7.704C40.4988 8.136 40.7788 8.744 40.7788 9.528C40.7788 10.016 40.6628 10.452 40.4308 10.836C40.2068 11.22 39.8668 11.524 39.4108 11.748C38.9548 11.964 38.3948 12.072 37.7308 12.072C37.1308 12.072 36.5588 11.976 36.0148 11.784C35.4788 11.584 35.0468 11.32 34.7188 10.992L35.1388 10.308C35.4188 10.596 35.7868 10.832 36.2428 11.016C36.6988 11.192 37.1908 11.28 37.7188 11.28C38.4148 11.28 38.9508 11.124 39.3268 10.812C39.7108 10.5 39.9028 10.084 39.9028 9.564C39.9028 8.988 39.6868 8.552 39.2548 8.256C38.8308 7.96 38.1108 7.812 37.0948 7.812H35.3068L35.7388 3.6H40.3348V4.368H36.4948L36.2068 7.044H37.2868ZM44.7797 8.832L43.2917 10.2V12H42.4397V3.096H43.2917V9.132L47.0597 5.688H48.1157L45.4157 8.268L48.3677 12H47.3237L44.7797 8.832Z" fill="#C4C4C4"/>
<defs>
<clipPath id="clip0">
<rect width="18" height="15" fill="white" transform="translate(0 1)"/>
</clipPath>
</defs>
</svg>
